<?xml version="1.0" standalone="no"?><!DOCTYPE svg PUBLIC "-//W3C//DTD SVG 1.1//EN" "http://www.w3.org/Graphics/SVG/1.1/DTD/svg11.dtd"><svg t="1666357484019" class="icon" viewBox="0 0 1024 1024" version="1.1" xmlns="http://www.w3.org/2000/svg" p-id="23137" xmlns:xlink="http://www.w3.org/1999/xlink" width="200" height="200"><path d="M649.020952 459.337143V350.110476H374.00381v109.226667l138.483809-53.150476z" p-id="23138" fill="#7dc5eb"></path><path d="M856.259048 18.529524h-682.666667c-80.457143 0-146.285714 65.828571-146.285714 146.285714v682.666667c0 80.457143 65.828571 146.285714 146.285714 146.285714h682.666667c80.457143 0 146.285714-65.828571 146.285714-146.285714v-682.666667c0-80.457143-65.828571-146.285714-146.285714-146.285714zM271.60381 507.611429c2.925714-5.851429 7.314286-10.24 13.165714-13.653334l42.422857-16.091428V350.110476c-1.950476-28.281905 19.017143-53.150476 47.786667-56.563809H443.733333L462.262857 224.304762h102.887619l15.60381 69.241905H650.48381c28.281905 2.925714 49.249524 27.794286 46.323809 56.07619V477.866667l42.910476 19.017143c6.339048 2.438095 11.215238 7.314286 13.165715 13.165714 1.462857 7.314286 1.462857 14.140952 0 21.455238L697.295238 712.899048c-38.034286-2.925714-72.167619-23.893333-92.16-56.56381-19.992381 32.182857-54.613333 53.150476-92.16 56.56381-38.034286-2.925714-72.655238-23.893333-92.647619-56.56381-19.504762 33.158095-54.125714 54.125714-92.16 56.076191h-0.487619 0.487619l-56.563809-184.32c-2.925714-5.851429-2.925714-13.653333 0-20.48z m491.52 280.380952h-20.96762c-44.373333-2.438095-87.28381-14.140952-126.780952-34.620952-61.927619 37.059048-138.971429 37.059048-200.411428 0-39.497143 20.48-82.407619 32.182857-126.780953 34.620952h-26.331428c58.026667 0 157.500952-77.531429 157.500952-77.531429 52.662857 48.274286 133.607619 49.737143 187.733333 2.438096h0.975238c-0.487619 0 96.060952 72.655238 155.062858 75.093333h5.851428-5.851428z" p-id="23139" fill="#7dc5eb"></path></svg>