<?xml version="1.0" standalone="no"?><!DOCTYPE svg PUBLIC "-//W3C//DTD SVG 1.1//EN" "http://www.w3.org/Graphics/SVG/1.1/DTD/svg11.dtd"><svg t="1666435591469" class="icon" viewBox="0 0 1024 1024" version="1.1" xmlns="http://www.w3.org/2000/svg" p-id="82849" xmlns:xlink="http://www.w3.org/1999/xlink" width="200" height="200"><path d="M954.473 637.943l-228.33-93.41-7.63-3.12v-116.65c0-3.6-1.71-6.99-4.6-9.12l-67.2-49.67-7.5-5.54v-77.68l8.69 5.55c0.03 0.02 0.06 0.04 0.09 0.05 0.06 0.05 0.12 0.09 0.18 0.12 14.78 9.59 34.62 5.36 44.21-9.43 4.64-7.16 6.22-15.71 4.44-24.06-1.78-8.35-6.71-15.51-13.88-20.15 0 0 0-0.01-0.01-0.01-0.05-0.03-0.1-0.07-0.15-0.1-0.03-0.01-0.05-0.03-0.07-0.04-0.06-0.04-0.12-0.09-0.19-0.13l-157.2-100.39c-0.02-0.01-0.03-0.02-0.05-0.03-0.06-0.03-0.11-0.07-0.15-0.1-5.4-3.5-11.63-5.25-18.07-5.12-6.43-0.15-12.68 1.62-18.01 5.08-0.07 0.05-0.14 0.09-0.21 0.14-0.02 0.01-0.03 0.02-0.05 0.03l-157.21 100.39c-0.04 0.03-0.09 0.06-0.13 0.09-0.04 0.03-0.08 0.05-0.12 0.08l-0.17 0.11c-7.16 4.64-12.09 11.8-13.87 20.15-1.79 8.35-0.21 16.9 4.44 24.06 6.11 9.43 16.39 14.57 26.87 14.57 5.96 0 11.97-1.66 17.33-5.13 0.06-0.04 0.13-0.09 0.2-0.13 0.03-0.02 0.07-0.04 0.1-0.07l8.66-5.53v90.42l-65.97 50.89a11.346 11.346 0 0 0-4.41 8.98v105.72l-233.35 99.24c-4.18 1.78-6.9 5.88-6.9 10.43v298.38c0 6.26 5.08 11.33 11.34 11.33h346.54c1.18 0.42 2.46 0.67 3.8 0.67h171.27c1.33 0 2.61-0.25 3.8-0.67h349.18c6.26 0 11.34-5.07 11.34-11.33v-298.38c0-4.6-2.79-8.75-7.05-10.49z m-649.97 297.53H86.933v-279.54l217.57-92.53v372.07z m49.72-666.43c-0.07 0.04-0.13 0.07-0.18 0.12l-0.05 0.03h-0.01c-0.1 0.06-0.19 0.11-0.27 0.17-0.08 0.05-0.15 0.1-0.22 0.15-4.29 2.7-9.98 1.46-12.75-2.81a9.298 9.298 0 0 1-1.29-6.99 9.273 9.273 0 0 1 3.94-5.79l0.13-0.08c0.17-0.1 0.33-0.21 0.49-0.32 0.01-0.01 0.02-0.01 0.03-0.02l156.77-100.11c0.05-0.04 0.11-0.07 0.16-0.1 0.02-0.01 0.03-0.02 0.05-0.04 0 0 0.01 0 0.02-0.01l0.01-0.01s0.01 0 0.02-0.01c0.01 0 0.01-0.01 0.01-0.01 0.05-0.02 0.1-0.06 0.15-0.09l0.09-0.06c0.01-0.01 0.02-0.02 0.03-0.02 0.02-0.01 0.04-0.03 0.06-0.04a9.178 9.178 0 0 1 5.25-1.42c0.26 0.01 0.51 0.01 0.77 0 1.84-0.07 3.65 0.42 5.27 1.43 0.03 0.02 0.06 0.04 0.08 0.05s0.03 0.02 0.05 0.04h0.01c0.12 0.08 0.23 0.16 0.36 0.23 0.03 0.02 0.06 0.04 0.1 0.06l156.75 100.11c0.01 0.01 0.02 0.01 0.04 0.02 0.16 0.11 0.32 0.22 0.48 0.32l0.13 0.07a9.27 9.27 0 0 1 3.94 5.8 9.21 9.21 0 0 1-1.29 6.99c-2.77 4.27-8.47 5.51-12.77 2.8l-0.16-0.12c-0.1-0.06-0.2-0.13-0.3-0.19-0.09-0.05-0.17-0.11-0.26-0.16l-29.05-18.55-0.08-0.05-117.58-75.09a11.373 11.373 0 0 0-12.21 0l-111.77 71.38-0.26 0.17-34.69 22.15z m262.32-0.77v75.78l-100.64-69.23-0.2-0.14c-0.95-0.68-1.99-1.19-3.06-1.54-0.16-0.06-0.32-0.1-0.48-0.14-0.15-0.05-0.3-0.09-0.46-0.12-3.24-0.75-6.74-0.06-9.49 2.06l-104.65 80.73v-87.29l3.84-2.56 0.29-0.19 105.36-67.28 109.49 69.92z m-30.68 667.2h-148.6v-318.67c0.04-0.32 0.07-0.65 0.09-0.97 1.63-39.93 34.23-71.21 74.21-71.21 39.99 0 72.59 31.28 74.22 71.21 0.01 0.32 0.04 0.64 0.08 0.96v318.68z m109.97-445.45h-0.33v445.45h-86.96v-320.11c0-0.67-0.06-1.34-0.18-1.98-1.38-24.48-11.84-47.28-29.57-64.35-18.15-17.47-42.03-27.09-67.23-27.09s-49.07 9.62-67.22 27.09c-17.73 17.07-28.2 39.87-29.58 64.34-0.11 0.65-0.17 1.32-0.17 1.99v320.11h-87.48v-388.11c0.03-0.36 0.06-0.73 0.06-1.1v-107.65l63.05-48.64 30.57-23.58 88.49-68.26 92.67 62.97 0.32 0.22 28.76 21.25h0.01l0.75 0.56 64.04 47.34v59.55z m243.01 445.45h-220.73v-369.73l8.03 3.29 212.7 87.01v279.43z" fill="#3D464B" p-id="82850"></path><path d="M585.863 616.793v318.68h-148.6v-318.67c0.04-0.32 0.07-0.65 0.09-0.97 1.63-39.93 34.23-71.21 74.21-71.21 39.99 0 72.59 31.28 74.22 71.21 0.01 0.32 0.04 0.64 0.08 0.96z" fill="#FFFFFF" p-id="82851"></path><path d="M726.143 569.033l-8.03-3.29v369.73h220.73v-279.43l-212.7-87.01z m163.54 289.53c0 11.77-9.58 21.34-21.34 21.34h-85.38c-11.76 0-21.34-9.57-21.34-21.34v-155.62c0-11.77 9.58-21.34 21.34-21.34h85.38c11.76 0 21.34 9.57 21.34 21.34v155.62zM86.933 655.933v279.54h217.57v-372.07l-217.57 92.53z m173.7 202.63c0 11.77-9.58 21.34-21.34 21.34h-85.38c-11.76 0-21.34-9.57-21.34-21.34v-155.62c0-11.77 9.58-21.34 21.34-21.34h85.38c11.76 0 21.34 9.57 21.34 21.34v155.62z" fill="#be8dbd" p-id="82852" data-spm-anchor-id="a313x.7781069.0.i95" class="selected"></path><path d="M616.543 268.273v75.78l-100.64-69.23-0.2-0.14c-0.95-0.68-1.99-1.19-3.06-1.54-0.16-0.06-0.32-0.1-0.48-0.14-0.15-0.05-0.3-0.09-0.46-0.12-3.24-0.75-6.74-0.06-9.49 2.06l-104.65 80.73v-87.29l3.84-2.56 0.29-0.19 105.36-67.28 109.49 69.92z" fill="#F7A09F" p-id="82853"></path><path d="M340.743 266.703a9.298 9.298 0 0 1-1.29-6.99 9.273 9.273 0 0 1 3.94-5.79l0.13-0.08c0.17-0.1 0.33-0.21 0.49-0.32 0.01-0.01 0.02-0.01 0.03-0.02l156.77-100.11c0.05-0.04 0.11-0.07 0.16-0.1 0.02-0.01 0.03-0.02 0.05-0.04 0 0 0.01 0 0.02-0.01l0.01-0.01s0.01 0 0.02-0.01c0.01 0 0.01-0.01 0.01-0.01 0.05-0.02 0.1-0.06 0.15-0.09l0.09-0.06c0.01-0.01 0.02-0.02 0.03-0.02 0.02-0.01 0.04-0.03 0.06-0.04a9.178 9.178 0 0 1 5.25-1.42c0.26 0.01 0.51 0.01 0.77 0 1.84-0.07 3.65 0.42 5.27 1.43 0.03 0.02 0.06 0.04 0.08 0.05s0.03 0.02 0.05 0.04h0.01c0.12 0.08 0.23 0.16 0.36 0.23 0.03 0.02 0.06 0.04 0.1 0.06l156.75 100.11c0.01 0.01 0.02 0.01 0.04 0.02 0.16 0.11 0.32 0.22 0.48 0.32l0.13 0.07a9.27 9.27 0 0 1 3.94 5.8 9.21 9.21 0 0 1-1.29 6.99c-2.77 4.27-8.47 5.51-12.77 2.8l-0.16-0.12c-0.1-0.06-0.2-0.13-0.3-0.19-0.09-0.05-0.17-0.11-0.26-0.16l-29.05-18.55-0.08-0.05-117.58-75.09a11.373 11.373 0 0 0-12.21 0l-111.77 71.38-0.26 0.17-34.69 22.15c-0.07 0.04-0.13 0.07-0.18 0.12l-0.05 0.03h-0.01c-0.1 0.06-0.19 0.11-0.27 0.17-0.08 0.05-0.15 0.1-0.22 0.15-4.29 2.7-9.98 1.46-12.75-2.81zM695.833 430.473v59.55h-0.33v445.45h-86.96v-320.11c0-0.67-0.06-1.34-0.18-1.98-1.38-24.48-11.84-47.28-29.57-64.35-18.15-17.47-42.03-27.09-67.23-27.09s-49.07 9.62-67.22 27.09c-17.73 17.07-28.2 39.87-29.58 64.34-0.11 0.65-0.17 1.32-0.17 1.99v320.11h-87.48v-388.11c0.03-0.36 0.06-0.73 0.06-1.1v-107.65l63.05-48.64 30.57-23.58 88.49-68.26 92.67 62.97 0.32 0.22 28.76 21.25h0.01l0.75 0.56 64.04 47.34z" fill="#be8dbd" p-id="82854" data-spm-anchor-id="a313x.7781069.0.i92" class="selected"></path><path d="M239.293 681.603h-85.38c-11.76 0-21.34 9.57-21.34 21.34v155.62c0 11.77 9.58 21.34 21.34 21.34h85.38c11.76 0 21.34-9.57 21.34-21.34v-155.62c0-11.77-9.58-21.34-21.34-21.34z m-1.34 175.62h-82.7v-152.94h82.7v152.94z" fill="#3D464B" p-id="82855"></path><path d="M155.253 704.283h82.7v152.94h-82.7z" fill="#FFFFFF" p-id="82856"></path><path d="M868.343 681.603h-85.38c-11.76 0-21.34 9.57-21.34 21.34v155.62c0 11.77 9.58 21.34 21.34 21.34h85.38c11.76 0 21.34-9.57 21.34-21.34v-155.62c0-11.77-9.58-21.34-21.34-21.34z m-1.34 175.62h-82.7v-152.94h82.7v152.94z" fill="#3D464B" p-id="82857"></path><path d="M784.303 704.283h82.7v152.94h-82.7z" fill="#FFFFFF" p-id="82858"></path><path d="M204.433 66.563c-22.94 0-41.6 18.67-41.6 41.6 0 22.94 18.66 41.6 41.6 41.6s41.6-18.66 41.6-41.6c0-22.93-18.66-41.6-41.6-41.6z m0 60.52c-10.43 0-18.92-8.49-18.92-18.92 0-10.43 8.49-18.92 18.92-18.92 10.43 0 18.92 8.49 18.92 18.92 0 10.43-8.49 18.92-18.92 18.92z" fill="#be8dbd" p-id="82859" data-spm-anchor-id="a313x.7781069.0.i96" class="selected"></path><path d="M200.095902 126.596436a18.92 18.92 0 1 0 8.696084-36.827214 18.92 18.92 0 1 0-8.696084 36.827214Z" fill="#B8D6C8" p-id="82860"></path><path d="M782.823 371.563c-22.94 0-41.6 18.66-41.6 41.6s18.66 41.6 41.6 41.6 41.6-18.66 41.6-41.6-18.66-41.6-41.6-41.6z m0 60.52c-10.43 0-18.92-8.49-18.92-18.92 0-10.43 8.49-18.92 18.92-18.92s18.92 8.49 18.92 18.92c0 10.43-8.49 18.92-18.92 18.92z" fill="#3D464B" p-id="82861"></path><path d="M769.436702 426.544209a18.92 18.92 0 1 0 26.756454-26.757388 18.92 18.92 0 1 0-26.756454 26.757388Z" fill="#F7A09F" p-id="82862"></path><path d="M152.553 318.553c-25.55 0-46.33 20.79-46.33 46.34 0 25.55 20.78 46.34 46.33 46.34 25.56 0 46.34-20.79 46.34-46.34 0-25.55-20.78-46.34-46.34-46.34z m0 70c-13.04 0-23.66-10.61-23.66-23.66 0-13.04 10.62-23.66 23.66-23.66 13.05 0 23.67 10.62 23.67 23.66 0 13.05-10.62 23.66-23.67 23.66z" fill="#3D464B" p-id="82863"></path><path d="M176.223 364.893c0 13.05-10.62 23.66-23.67 23.66-13.04 0-23.66-10.61-23.66-23.66 0-13.04 10.62-23.66 23.66-23.66 13.05 0 23.67 10.62 23.67 23.66z" fill="#F7A09F" p-id="82864"></path><path d="M848.083 112.613c-25.55 0-46.34 20.78-46.34 46.33 0 25.56 20.79 46.34 46.34 46.34s46.34-20.78 46.34-46.34c0-25.55-20.79-46.33-46.34-46.33z m0 70c-13.05 0-23.66-10.62-23.66-23.67 0-13.04 10.61-23.66 23.66-23.66s23.66 10.62 23.66 23.66c0 13.05-10.61 23.67-23.66 23.67z" fill="#3D464B" p-id="82865"></path><path d="M871.743 158.943c0 13.05-10.61 23.67-23.66 23.67s-23.66-10.62-23.66-23.67c0-13.04 10.61-23.66 23.66-23.66s23.66 10.62 23.66 23.66z" fill="#be8dbd" p-id="82866" data-spm-anchor-id="a313x.7781069.0.i99" class="selected"></path></svg>