<?xml version="1.0" standalone="no"?><!DOCTYPE svg PUBLIC "-//W3C//DTD SVG 1.1//EN" "http://www.w3.org/Graphics/SVG/1.1/DTD/svg11.dtd"><svg t="1666159472474" class="icon" viewBox="0 0 1024 1024" version="1.1" xmlns="http://www.w3.org/2000/svg" p-id="2220" xmlns:xlink="http://www.w3.org/1999/xlink" width="200" height="200"><path d="M274.08 128.9s-8.52-7.58-15.25-1.86 10.54 19.08 22.39 20.28c4.33-6.56 13.71-27.08 1.68-28.93-10.23-1.58-8.82 10.51-8.82 10.51zM767.2 424.7l11.93 5.06s18.36-17.44 14.93-36.1l-8.42-5.26s-0.29 23.79-18.44 36.3zM870.51 815.3s12.82-11.43 5.44-22.49c-7.39-11.06-30.37 12.46-34.23 29.97 9.07 7.62 38.12 25.22 42.98 7.55 4.13-15.04-14.19-15.03-14.19-15.03zM722.75 105.31s9.3-24.7-8.64-34.5c-17.95-9.79-32.46 38.61-25.23 65.2 17.78 3.91 69.88 7.15 63.9-20.37-5.08-23.41-30.03-10.33-30.03-10.33zM605.6 121.14c0.11 10.89 1.85 14 5.66 10.11-3.81 3.89-0.67 5.57 10.22 5.45-10.89 0.11-14 1.85-10.11 5.66-3.89-3.81-5.57-0.67-5.45 10.22-0.11-10.89-1.85-14-5.66-10.11 3.81-3.89 0.67-5.57-10.22-5.45 10.89-0.11 14-1.85 10.11-5.66 3.89 3.81 5.56 0.67 5.45-10.22zM302.79 182.33c0.11 10.89 1.85 14 5.66 10.11-3.81 3.89-0.67 5.57 10.22 5.45-10.89 0.11-14 1.85-10.11 5.66-3.89-3.81-5.57-0.67-5.45 10.22-0.11-10.89-1.85-14-5.66-10.11 3.81-3.89 0.67-5.57-10.22-5.45 10.89-0.11 14-1.85 10.11-5.66 3.89 3.81 5.57 0.67 5.45-10.22zM911.39 705.76c0.11 10.89 1.85 14 5.66 10.11-3.81 3.89-0.67 5.57 10.22 5.45-10.89 0.11-14 1.85-10.11 5.66-3.89-3.81-5.57-0.67-5.45 10.22-0.11-10.89-1.85-14-5.66-10.11 3.81-3.89 0.67-5.57-10.22-5.45 10.89-0.11 14-1.85 10.11-5.66 3.88 3.81 5.56 0.67 5.45-10.22zM395.96 889c0.21 19.66 3.35 25.26 10.23 18.24-6.88 7.02-1.21 10.05 18.45 9.84-19.66 0.21-25.26 3.35-18.24 10.22-7.02-6.88-10.05-1.21-9.84 18.45-0.21-19.66-3.35-25.26-10.23-18.24 6.88-7.02 1.21-10.05-18.45-9.84 19.66-0.21 25.26-3.35 18.24-10.23 7.02 6.88 10.04 1.22 9.84-18.44zM231.68 385.97c0.31 29.77 5.07 38.25 15.48 27.61-10.41 10.63-1.83 15.21 27.93 14.9-29.77 0.31-38.25 5.07-27.61 15.48-10.63-10.41-15.21-1.83-14.9 27.93-0.31-29.77-5.07-38.25-15.48-27.61 10.41-10.63 1.83-15.21-27.93-14.9 29.77-0.31 38.25-5.07 27.61-15.48 10.64 10.42 15.21 1.84 14.9-27.93zM116.17 750.69s-11.06-3.5-14.93 4.61 17.72 13.33 29.22 9.52c1.29-7.9 1.48-30.84-10.46-27.56-10.17 2.79-3.83 13.43-3.83 13.43z" fill="#F099F9" p-id="2221"></path><path d="M121.47 769.75c-8.85 0-18.32-2.73-22.17-7.08-2.33-2.64-2.84-5.9-1.38-8.94 2.71-5.68 8.07-7.39 12.82-7.45-0.32-1.96-0.29-4.17 0.56-6.28 0.86-2.13 2.89-4.94 7.72-6.27 4.7-1.29 7.88 0.41 9.73 2.07 7.24 6.51 6.24 24 5.32 29.62l-0.36 2.19-2.11 0.7c-2.98 0.98-6.5 1.44-10.13 1.44z m-10.62-16.17c-2.35 0-5.05 0.65-6.31 3.3-0.13 0.28-0.2 0.41 0.27 0.93 3.39 3.84 15.15 5.42 22.32 4.07 0.73-7.31-0.07-17.73-3.3-20.64-0.55-0.5-1.28-0.89-2.88-0.45-2.33 0.64-2.73 1.61-2.86 1.92-0.73 1.78 0.51 4.88 1.22 6.1l4.78 8.21-9.04-2.84c-0.15-0.04-2.02-0.6-4.2-0.6z" fill="#F099F9" p-id="2222"></path><path d="M506.55 77.66a6.23 6.23 0 0 0-6.23-6.23h-15.28a6.23 6.23 0 0 0-6.23 6.23v31H454a6.23 6.23 0 0 0-6.23 6.23v15.28a6.23 6.23 0 0 0 6.23 6.23h24.82v81.76h27.73V136.4h24.82a6.23 6.23 0 0 0 6.23-6.23v-15.28a6.23 6.23 0 0 0-6.23-6.23h-24.82v-31z" fill="#CEF6FE" p-id="2223"></path><path d="M419.05 655.99c0 11.86 9.6 21.46 21.46 21.46 11.85 0 21.46-9.6 21.46-21.46 0-11.85-9.61-21.46-21.46-21.46-11.86 0-21.46 9.61-21.46 21.46z m0 0" fill="#FEED57" p-id="2224"></path><path d="M847.44 650.75L813.3 624.6l0.64-8.24h-11.4l-116.16-88.98H298.99l-116.16 88.98H171.5l0.64 8.19-34.21 26.2h36.25l14.83 190.02h607.42l14.83-190.02z" fill="#6250EA" p-id="2225"></path><path d="M118.81 651.67l-0.77-1.01c-3.9-5.11-2.92-12.48 2.19-16.39l192.03-146.71c5.11-3.9 12.48-2.92 16.39 2.19l0.77 1.01c3.9 5.11 2.92 12.48-2.19 16.39L135.2 653.86c-5.11 3.9-12.49 2.91-16.39-2.19zM868.03 652.23l0.77-1.01c3.9-5.11 2.92-12.48-2.19-16.39L674.58 488.12c-5.11-3.9-12.48-2.92-16.39 2.19l-0.77 1.01c-3.9 5.11-2.92 12.48 2.19 16.39l192.03 146.71c5.11 3.91 12.48 2.92 16.39-2.19z" fill="#F099F9" p-id="2226"></path><path d="M686.38 369.61v443.04-75.16 103.28H298.99V369.61c0-7 0.45-13.92 1.34-20.71 0.07-1.16 0.22-2.33 0.44-3.43 2.3-16.25 7.04-31.74 13.71-46.28 0.59-1.16 1.11-2.26 1.7-3.42 8.3-17 19.42-32.64 32.82-46.28 1.04-1.16 2.22-2.33 3.48-3.42 30.75-30.03 72.69-50.12 119.75-54.71 0.23-0.08 0.45-0.08 0.67-0.08 0.36-0.06 0.74-0.06 1.18-0.06 0.16 0 0.37-0.07 0.52-0.07 0.82-0.07 1.56-0.14 2.37-0.14 1.64-0.14 3.34-0.27 4.96-0.35 3.56-0.2 7.12-0.27 10.75-0.27s7.19 0.07 10.75 0.27c1.62 0.08 3.33 0.21 4.96 0.35 0.81 0 1.55 0.07 2.37 0.14 0.15 0 0.36 0.07 0.51 0.07 0.45 0 0.82 0 1.18 0.06 0.23 0 0.45 0 0.67 0.08 47.06 4.59 89 24.68 119.75 54.71 1.26 1.09 2.44 2.26 3.48 3.42 13.41 13.64 24.52 29.28 32.82 46.28 0.59 1.16 1.11 2.26 1.7 3.42 6.67 14.54 11.41 30.03 13.71 46.28 0.22 1.1 0.37 2.27 0.44 3.43 0.91 6.79 1.36 13.71 1.36 20.71z" fill="#7B62F6" p-id="2227"></path><path d="M298.99 828.65c-2.03 0-3.67-1.64-3.67-3.67V591.1c0-2.03 1.64-3.67 3.67-3.67s3.67 1.64 3.67 3.67v233.89c0 2.02-1.64 3.66-3.67 3.66zM298.99 572.2c-2.03 0-3.67-1.64-3.67-3.67v-32.72c0-2.03 1.64-3.67 3.67-3.67s3.67 1.64 3.67 3.67v32.72c0 2.03-1.64 3.67-3.67 3.67zM298.99 496.24c-2.03 0-3.67-1.64-3.67-3.67V369.61c0-7.09 0.46-14.17 1.35-21.06 0.08-1.25 0.24-2.5 0.48-3.7 2.28-16.05 6.99-31.93 13.99-47.19 0.02-0.05 0.04-0.09 0.07-0.14 0.3-0.59 0.59-1.17 0.87-1.75 0.27-0.55 0.54-1.1 0.83-1.67 8.42-17.26 19.68-33.13 33.42-47.13 1.12-1.25 2.36-2.47 3.67-3.61 32.1-31.3 75.26-51.05 121.59-55.63 0.41-0.09 0.77-0.11 1.04-0.12 0.43-0.05 0.82-0.06 1.19-0.06 0.15-0.03 0.34-0.05 0.55-0.06l0.13-0.01c0.73-0.06 1.48-0.13 2.31-0.13 1.41-0.12 3.21-0.26 4.96-0.35 3.31-0.19 6.79-0.27 10.92-0.27s7.61 0.09 10.96 0.28c1.72 0.08 3.52 0.23 4.92 0.34 0.83 0.01 1.58 0.07 2.31 0.13l0.13 0.01c0.22 0.01 0.41 0.04 0.55 0.06 0.37 0 0.76 0.01 1.19 0.06 0.28 0.01 0.63 0.03 1.04 0.12 46.33 4.58 89.5 24.33 121.59 55.63 1.31 1.15 2.54 2.36 3.67 3.61 13.74 13.99 24.99 29.87 33.44 47.18 0.26 0.52 0.54 1.07 0.81 1.63 0.28 0.57 0.56 1.15 0.86 1.73 0.02 0.05 0.05 0.09 0.07 0.14 7 15.26 11.71 31.14 13.99 47.19 0.24 1.2 0.4 2.45 0.48 3.7 0.9 6.88 1.35 13.97 1.35 21.06v122.21c0 2.03-1.64 3.67-3.67 3.67s-3.67-1.64-3.67-3.67v-122.2c0-6.81-0.44-13.62-1.31-20.23l-0.03-0.27c-0.06-0.98-0.19-1.99-0.37-2.92-0.01-0.07-0.03-0.14-0.04-0.21-2.18-15.36-6.68-30.57-13.38-45.2-0.31-0.6-0.59-1.19-0.88-1.77-0.26-0.53-0.52-1.05-0.79-1.59-8.14-16.68-18.96-31.93-32.17-45.37-0.04-0.04-0.08-0.08-0.12-0.13-0.94-1.05-2.03-2.13-3.15-3.1-0.05-0.05-0.1-0.09-0.15-0.14-30.98-30.25-72.73-49.31-117.55-53.68-0.14-0.01-0.28-0.04-0.42-0.06-0.17-0.01-0.36-0.02-0.5-0.05-0.08-0.01-0.35-0.01-0.57-0.01-0.38 0-0.69-0.05-0.88-0.09l-0.15-0.01c-0.8-0.07-1.47-0.06-2.16-0.12-1.36-0.12-3.13-0.26-4.83-0.34-3.24-0.18-6.59-0.27-10.58-0.27s-7.34 0.08-10.54 0.27c-1.72 0.08-3.5 0.23-4.86 0.34-0.69 0.06-1.36 0.05-2.16 0.12l-0.16 0.01c-0.22 0.04-0.52 0.09-0.89 0.09-0.22 0-0.49 0-0.57 0.01-0.17 0.03-0.35 0.05-0.52 0.05-0.13 0.03-0.27 0.05-0.4 0.06-44.82 4.37-86.56 23.43-117.54 53.68-0.05 0.05-0.1 0.1-0.16 0.14-1.11 0.97-2.2 2.04-3.15 3.1-0.04 0.04-0.08 0.08-0.12 0.13-13.21 13.45-24.03 28.7-32.14 45.32-0.3 0.59-0.55 1.11-0.81 1.63-0.29 0.59-0.58 1.18-0.89 1.78-6.7 14.63-11.2 29.84-13.38 45.2-0.01 0.07-0.02 0.14-0.04 0.21-0.19 0.93-0.32 1.94-0.37 2.92 0 0.09-0.01 0.18-0.03 0.27-0.87 6.61-1.31 13.42-1.31 20.23v122.96a3.636 3.636 0 0 1-3.65 3.67z m174.44-301.42z m37.06-0.02c0.09 0.01 0.19 0.01 0.27 0.01-0.09 0-0.18 0-0.27-0.01z m-35.71 0.01h-0.18 0.18z m37.11 0zM686.38 740.29c-2.03 0-3.67-1.64-3.67-3.67V548.23c0-2.03 1.64-3.67 3.67-3.67s3.67 1.64 3.67 3.67v188.39c-0.01 2.02-1.65 3.67-3.67 3.67zM686.38 816.45c-2.1 0-3.8-1.7-3.8-3.8v-47.84c0-2.1 1.7-3.8 3.8-3.8s3.8 1.7 3.8 3.8v47.84c-0.01 2.1-1.71 3.8-3.8 3.8z" fill="#110971" p-id="2228"></path><path d="M686.38 834.67c-2.03 0-3.67-1.64-3.67-3.67v-50.39c0-2.03 1.64-3.67 3.67-3.67s3.67 1.64 3.67 3.67V831a3.679 3.679 0 0 1-3.67 3.67z" fill="#110971" p-id="2229"></path><path d="M348.59 233.37c33.77-28.67 75.87-47.48 122-52.03 0.24-0.08 0.48-0.08 0.72-0.08 0.4-0.08 0.8-0.08 1.28-0.08h0.56c0.88-0.08 1.75-0.24 2.56-0.24 1.76-0.17 3.6-0.33 5.36-0.41 3.84-0.24 7.68-0.32 11.6-0.32s7.77 0.08 11.6 0.32c1.76 0.08 3.6 0.24 5.36 0.41 0.8 0 1.68 0.17 2.56 0.24h0.56c0.47 0 0.87 0 1.28 0.08 0.24 0 0.49 0 0.72 0.08 52.73 5.2 100.19 29.03 135.95 64.9 1.37 1.3 2.72 2.68 3.92 4.07 12.52 13.05 23.36 27.58 32.43 43.33 1.45 2.51 2.85 5.06 4.2 7.64 0.69 1.3 1.36 2.61 2.02 3.93 0.72 1.31 1.36 2.69 2 4.07 8.24 17.16 14.49 35.62 18.25 54.91 0.24 1.38 0.48 2.68 0.72 4.06 1.41 7.79 2.41 15.72 2.99 23.75 0.67 9.24-6.77 17.08-16.03 17.08-8.36 0-15.29-6.45-15.9-14.79-0.66-8.85-1.9-17.55-3.7-26.05-0.24-1.38-0.57-2.76-0.88-4.06-4.49-19.61-11.93-38.07-21.77-54.91-0.79-1.38-1.59-2.76-2.48-4.07-13.12-21.38-30.25-40.1-50.33-54.9-1.84-1.39-3.76-2.77-5.68-4.07-30.81-21.15-67.94-33.51-107.79-33.51-33.59 0-65.25 8.79-92.82 24.22-1.59 0.89-3.16 1.8-4.72 2.73-0.96 0.58-1.92 1.16-2.88 1.75-2.5 1.55-4.96 3.16-7.38 4.82-1.91 1.3-3.84 2.68-5.67 4.07-20.09 14.79-37.22 33.51-50.34 54.9-0.88 1.31-1.68 2.69-2.49 4.07a196.504 196.504 0 0 0-13.68 28.44c-3.29 8.54-6 17.38-8.09 26.47-0.31 1.3-0.64 2.68-0.88 4.06-1.8 8.5-3.05 17.19-3.7 26.04-0.62 8.34-7.54 14.79-15.9 14.79-9.26 0-16.7-7.85-16.03-17.08 0.58-8.03 1.58-15.96 2.99-23.75 0.23-1.38 0.48-2.68 0.72-4.06 3.76-19.28 10.01-37.74 18.25-54.91 0.64-1.38 1.28-2.76 2.01-4.07 10.16-20.25 23.12-38.71 38.64-54.9" fill="#F099F9" p-id="2230"></path><path d="M230.45 844.44h-41.44c-1.91 0-3.51-1.47-3.66-3.38l-8.4-107.65a3.664 3.664 0 0 1 3.37-3.94 3.67 3.67 0 0 1 3.94 3.37l8.14 104.26h38.05c2.03 0 3.67 1.64 3.67 3.67s-1.64 3.67-3.67 3.67zM653.86 844.44H265.05c-2.03 0-3.67-1.64-3.67-3.67s1.64-3.67 3.67-3.67h388.81c2.03 0 3.67 1.64 3.67 3.67s-1.64 3.67-3.67 3.67zM796.43 844.44h-68.12c-2.03 0-3.67-1.64-3.67-3.67s1.64-3.67 3.67-3.67h64.72l5.36-68.64c0.16-2.02 1.93-3.54 3.94-3.37 2.02 0.16 3.53 1.92 3.37 3.94l-5.62 72.02a3.664 3.664 0 0 1-3.65 3.39zM805.74 725.15c-0.1 0-0.19 0-0.29-0.01a3.664 3.664 0 0 1-3.37-3.94l5.52-70.73a3.665 3.665 0 0 1 3.66-3.38h35.58c0.8 0 1.59 0.26 2.23 0.75l4.3 3.29c3.79 2.9 9.24 2.17 12.14-1.62 1.4-1.83 2-4.1 1.69-6.4-0.31-2.3-1.48-4.34-3.31-5.74L688.53 503.4a3.666 3.666 0 1 1 4.45-5.83l175.34 133.96c3.38 2.59 5.56 6.35 6.13 10.59 0.57 4.24-0.54 8.45-3.13 11.83-5.35 7.01-15.41 8.36-22.42 3l-3.32-2.53h-30.94l-5.26 67.35a3.646 3.646 0 0 1-3.64 3.38zM701.22 412.75c-8.17 0-15.34-4.97-18.27-12.67-0.72-1.89 0.23-4.01 2.12-4.73 1.89-0.72 4.01 0.23 4.73 2.12 1.83 4.82 6.31 7.94 11.41 7.94 3.45 0 6.77-1.45 9.12-3.98 2.34-2.52 3.5-5.77 3.25-9.17-0.57-7.88-1.56-15.74-2.94-23.36-0.16-0.93-0.31-1.79-0.47-2.66l-0.25-1.42c-3.61-18.52-9.65-36.69-17.94-53.96-0.58-1.27-1.22-2.65-1.9-3.88-0.02-0.04-0.05-0.09-0.07-0.13-0.65-1.3-1.31-2.59-1.99-3.87-0.41-0.78-0.82-1.55-1.24-2.32a3.67 3.67 0 0 1 1.48-4.97c1.78-0.96 4-0.3 4.97 1.48 0.43 0.8 0.86 1.59 1.28 2.4 0.68 1.3 1.36 2.61 2.02 3.93 0.8 1.45 1.51 3 2.09 4.25a231.09 231.09 0 0 1 18.52 55.74l0.26 1.47c0.16 0.89 0.32 1.77 0.47 2.68 1.42 7.84 2.44 15.96 3.03 24.1 0.4 5.45-1.45 10.67-5.19 14.69a19.876 19.876 0 0 1-14.49 6.32zM681.61 288.43c-1.25 0-2.48-0.62-3.21-1.75a218.39 218.39 0 0 0-14.23-19.78 3.797 3.797 0 1 1 5.91-4.77c5.24 6.5 10.19 13.38 14.72 20.47 1.13 1.77 0.61 4.12-1.16 5.25-0.62 0.39-1.33 0.58-2.03 0.58zM643.49 242.97c-0.89 0-1.78-0.32-2.48-0.97-35.51-32.63-79.29-52.35-126.61-57.01-0.14-0.01-0.28-0.04-0.42-0.07-0.23 0-0.45-0.03-0.68-0.08-0.06-0.01-0.34-0.01-0.54-0.01h-0.56c-0.1 0-0.21 0-0.31-0.01-0.37-0.03-0.74-0.08-1.1-0.12-0.44-0.06-0.86-0.11-1.14-0.11-0.12 0-0.23-0.01-0.35-0.02-0.69-0.07-1.39-0.11-2.09-0.16l-0.94-0.07a3.667 3.667 0 0 1-3.39-3.66V148.5c0-2.03 1.64-3.67 3.67-3.67s3.67 1.64 3.67 3.67v28.77c0.52 0.03 1.02 0.09 1.48 0.15 0.23 0.03 0.45 0.06 0.68 0.08h0.4c0.48 0 1.01 0 1.61 0.09 0.28 0.01 0.64 0.04 1.05 0.13 48.79 4.87 93.93 25.23 130.55 58.88a3.667 3.667 0 0 1 0.22 5.18c-0.74 0.79-1.73 1.19-2.72 1.19z m-129.96-58.18zM285.91 322.11c-0.48 0-0.97-0.09-1.44-0.3a3.664 3.664 0 0 1-1.93-4.81c1.33-3.11 2.75-6.24 4.22-9.31 0.64-1.39 1.3-2.8 2.07-4.19 10.36-20.63 23.56-39.37 39.24-55.73l0.12-0.12 17.87-16.94c0.05-0.05 0.1-0.09 0.15-0.13 35.37-30.02 78.14-48.3 123.73-52.85 0.4-0.09 0.76-0.12 1.04-0.13 0.6-0.09 1.13-0.09 1.61-0.09h0.39c0.23-0.02 0.46-0.05 0.68-0.08 0.45-0.06 0.95-0.12 1.48-0.15v-12.6c0-2.03 1.64-3.67 3.67-3.67s3.67 1.64 3.67 3.67v16.01c0 1.92-1.48 3.51-3.39 3.66l-0.94 0.07c-0.7 0.05-1.4 0.1-2.08 0.16-0.12 0.01-0.23 0.02-0.35 0.02-0.28 0-0.7 0.05-1.14 0.11-0.37 0.05-0.74 0.09-1.11 0.12-0.1 0.01-0.21 0.01-0.31 0.01h-0.56c-0.21 0-0.48 0-0.56 0.01-0.22 0.05-0.44 0.07-0.66 0.07-0.14 0.03-0.28 0.05-0.42 0.07-44.17 4.36-85.63 22.03-119.91 51.11l-17.74 16.81c-15.16 15.82-27.93 33.97-37.95 53.94-0.02 0.04-0.05 0.09-0.07 0.13-0.66 1.19-1.27 2.49-1.88 3.82-1.45 3.02-2.83 6.06-4.11 9.07a3.684 3.684 0 0 1-3.39 2.24z m185.89-137.3s-0.01 0 0 0c-0.01 0 0 0 0 0zM284.15 412.75c-5.48 0-10.76-2.3-14.49-6.32-3.75-4.03-5.59-9.25-5.2-14.69 0.59-8.14 1.61-16.26 3.04-24.14 0.12-0.73 0.26-1.47 0.39-2.21 0.11-0.6 0.21-1.2 0.32-1.82 0.62-3.18 1.3-6.31 2.03-9.39a3.665 3.665 0 0 1 4.42-2.71c1.97 0.47 3.19 2.45 2.71 4.42-0.71 2.98-1.37 6.01-1.95 9.01l-0.32 1.79c-0.13 0.72-0.26 1.44-0.38 2.18-1.39 7.66-2.38 15.52-2.95 23.4-0.25 3.39 0.91 6.65 3.25 9.17 2.35 2.53 5.68 3.98 9.12 3.98 5.1 0 9.58-3.12 11.41-7.94a3.667 3.667 0 0 1 4.73-2.12c1.89 0.72 2.84 2.84 2.12 4.73-2.91 7.68-10.08 12.66-18.25 12.66zM166.3 602.87c-1.14 0-2.27-0.51-3.02-1.49a3.815 3.815 0 0 1 0.71-5.33l131.25-100.27a3.806 3.806 0 0 1 5.33 0.71c1.27 1.67 0.95 4.05-0.71 5.33L168.61 602.09c-0.69 0.52-1.5 0.78-2.31 0.78zM176.97 690.22c-1.9 0-3.5-1.46-3.65-3.38l-2.53-32.42H140.5l-2.58 1.97c-3.38 2.59-7.59 3.7-11.83 3.13-4.24-0.57-8.01-2.75-10.59-6.13-5.35-7.01-4.01-17.07 3-22.42l31.6-24.14a3.666 3.666 0 1 1 4.45 5.83l-31.6 24.14c-3.79 2.9-4.52 8.34-1.62 12.14s8.34 4.52 12.14 1.62l3.56-2.72c0.64-0.49 1.42-0.75 2.23-0.75h34.92c1.91 0 3.51 1.47 3.66 3.38l2.79 35.8a3.664 3.664 0 0 1-3.37 3.94c-0.09 0.01-0.19 0.01-0.29 0.01z" fill="#110971" p-id="2231"></path><path d="M584.87 836.92V707.51c0-47.19-38.61-85.81-85.81-85.81h-4.57c-47.19 0-85.81 38.61-85.81 85.81v129.41h176.19z" fill="#F099F9" p-id="2232"></path><path d="M408.69 738.16c-2.1 0-3.8-1.7-3.8-3.8v-26.85c0-49.41 40.2-89.61 89.61-89.61h4.56c2.1 0 3.8 1.7 3.8 3.8s-1.7 3.8-3.8 3.8h-4.56c-45.22 0-82.01 36.79-82.01 82.01v26.85c0 2.1-1.7 3.8-3.8 3.8zM584.87 840.72H408.69c-2.1 0-3.8-1.7-3.8-3.8v-50.67c0-2.1 1.7-3.8 3.8-3.8s3.8 1.7 3.8 3.8v46.87h168.58V707.51c0-9.82-1.74-19.43-5.17-28.58a3.8 3.8 0 0 1 2.22-4.89c1.97-0.74 4.15 0.26 4.89 2.22 3.75 10 5.65 20.52 5.65 31.25v129.41c0.01 2.1-1.69 3.8-3.79 3.8zM568.4 660.9c-1.17 0-2.33-0.54-3.07-1.56-7.16-9.8-16.55-18.05-27.17-23.86a3.803 3.803 0 0 1 3.65-6.67c11.59 6.34 21.85 15.35 29.66 26.04 1.24 1.69 0.87 4.07-0.83 5.31-0.68 0.51-1.46 0.74-2.24 0.74z" fill="#110971" p-id="2233"></path><path d="M492.7 285.67h-0.02c-43.46 0-78.74 35.18-78.74 78.65 0 1.76 0.32 3.41 0.44 5.14h78.32v-83.79z" fill="#F099F9" p-id="2234"></path><path d="M571.17 369.46c0.11-1.71 0.26-3.4 0.26-5.14 0-23.28-10.05-44.12-26.06-58.54-13.97-12.48-32.48-20.1-52.67-20.11v83.79h78.47zM414.38 369.46c0.48 7.22 1.68 14.22 3.92 20.83 10.81 30.72 40.04 52.78 74.38 52.78h0.02v-73.61h-78.32z" fill="#CEF6FE" p-id="2235"></path><path d="M571.17 369.46H492.7v73.61c41.73-0.02 75.81-32.55 78.47-73.61z" fill="#F099F9" p-id="2236"></path><path d="M424.62 407.6a3.66 3.66 0 0 1-3.17-1.82 82.93 82.93 0 0 1-6.62-14.28c-2.24-6.59-3.58-13.71-4.12-21.81-0.04-0.62-0.11-1.23-0.18-1.83-0.13-1.11-0.26-2.27-0.26-3.54 0-36.63 24.61-69.2 59.85-79.2 1.95-0.56 3.98 0.58 4.53 2.53a3.67 3.67 0 0 1-2.53 4.53c-32.1 9.1-54.52 38.77-54.52 72.14 0 0.85 0.1 1.75 0.21 2.7 0.08 0.73 0.17 1.45 0.22 2.19 0.49 7.45 1.72 13.95 3.73 19.89a75.07 75.07 0 0 0 6.02 12.97c1.02 1.75 0.44 3.99-1.31 5.02-0.58 0.35-1.22 0.51-1.85 0.51zM492.7 446.73c-16.5 0-32.44-4.87-46.08-14.09a3.656 3.656 0 0 1-0.98-5.09 3.656 3.656 0 0 1 5.09-0.98c12.42 8.4 26.93 12.84 41.97 12.84 18.91 0 36.97-7.08 50.84-19.92 13.79-12.76 22.27-30.07 23.85-48.73a3.657 3.657 0 0 1 3.96-3.34c2.02 0.17 3.51 1.95 3.34 3.96-1.74 20.49-11.04 39.49-26.18 53.5-15.22 14.08-35.05 21.85-55.81 21.85zM568.58 346.88c-1.61 0-3.08-1.06-3.53-2.69-3.8-13.74-11.46-26.08-22.12-35.69a75.412 75.412 0 0 0-21.97-13.68 3.66 3.66 0 0 1-2.02-4.77 3.66 3.66 0 0 1 4.78-2.02 82.677 82.677 0 0 1 24.11 15.02c11.72 10.56 20.12 24.11 24.3 39.19a3.661 3.661 0 0 1-3.55 4.64zM492.93 617.89h6.31v219.87h-6.31z" fill="#110971" p-id="2237"></path><path d="M302.96 505.02h378.65v25.95H302.96z" fill="#FFFFFF" p-id="2238"></path><path d="M302.96 529.85h378.65v12.97H302.96z" fill="#6250EA" p-id="2239"></path><path d="M605.48 267.19c0.2 19.02 3.24 24.44 9.89 17.65-6.65 6.8-1.17 9.72 17.85 9.52-19.02 0.2-24.44 3.24-17.65 9.89-6.8-6.65-9.72-1.17-9.52 17.85-0.2-19.02-3.24-24.44-9.89-17.65 6.65-6.8 1.17-9.72-17.85-9.52 19.02-0.2 24.44-3.24 17.65-9.89 6.79 6.65 9.72 1.17 9.52-17.85z" fill="#FFFFFF" p-id="2240"></path><path d="M372.2 428.46c0.21 19.81 3.37 25.45 10.3 18.38-6.93 7.08-1.22 10.12 18.59 9.92-19.81 0.21-25.45 3.37-18.38 10.3-7.08-6.93-10.12-1.22-9.92 18.59-0.21-19.81-3.37-25.45-10.3-18.38 6.93-7.08 1.22-10.12-18.59-9.92 19.81-0.21 25.45-3.37 18.38-10.3 7.09 6.93 10.13 1.22 9.92-18.59z" fill="#FFFFFF" p-id="2241"></path><path d="M635.44 593.07c0.13 12.41 2.11 15.95 6.45 11.51-4.34 4.43-0.76 6.34 11.65 6.21-12.41 0.13-15.95 2.11-11.51 6.45-4.43-4.34-6.34-0.76-6.21 11.65-0.13-12.41-2.11-15.95-6.45-11.51 4.34-4.43 0.76-6.34-11.65-6.21 12.41-0.13 15.95-2.11 11.51-6.45 4.43 4.34 6.34 0.76 6.21-11.65z" fill="#FFFFFF" p-id="2242"></path><path d="M744.11 757.45c0.06 6.14 1.05 7.89 3.19 5.7-2.15 2.19-0.38 3.14 5.76 3.07-6.14 0.06-7.89 1.05-5.7 3.19-2.19-2.15-3.14-0.38-3.07 5.76-0.06-6.14-1.05-7.89-3.19-5.7 2.15-2.19 0.38-3.14-5.76-3.07 6.14-0.06 7.89-1.05 5.7-3.19 2.19 2.15 3.14 0.38 3.07-5.76z" fill="#FFFFFF" p-id="2243"></path><path d="M531.72 716.24c0.15 14.35 2.44 18.43 7.46 13.31-5.02 5.12-0.88 7.33 13.46 7.18-14.35 0.15-18.43 2.44-13.31 7.46-5.13-5.02-7.33-0.88-7.18 13.46-0.15-14.35-2.44-18.43-7.46-13.31 5.02-5.12 0.88-7.33-13.46-7.18 14.35-0.15 18.43-2.44 13.31-7.46 5.12 5.02 7.33 0.89 7.18-13.46z" fill="#FFFFFF" p-id="2244"></path><path d="M241.59 681.04c0.17 16.09 2.74 20.67 8.37 14.92-5.63 5.75-0.99 8.22 15.09 8.05-16.09 0.17-20.67 2.74-14.92 8.37-5.75-5.63-8.22-0.99-8.05 15.09-0.17-16.09-2.74-20.67-8.37-14.92 5.63-5.75 0.99-8.22-15.09-8.05 16.09-0.17 20.67-2.74 14.92-8.37 5.74 5.63 8.22 1 8.05-15.09z" fill="#FFFFFF" p-id="2245"></path></svg>