<?xml version="1.0" standalone="no"?><!DOCTYPE svg PUBLIC "-//W3C//DTD SVG 1.1//EN" "http://www.w3.org/Graphics/SVG/1.1/DTD/svg11.dtd"><svg t="1666159913360" class="icon" viewBox="0 0 1089 1024" version="1.1" xmlns="http://www.w3.org/2000/svg" p-id="2837" xmlns:xlink="http://www.w3.org/1999/xlink" width="212.6953125" height="200"><path d="M529.88883 1002.858655a328.232927 328.232927 0 0 1-193.524616-63.017469l79.008999-162.625728a5.014293 5.014293 0 0 0-1.219693-5.962943l-97.439915-87.953415a4.607729 4.607729 0 0 0-4.472207-1.219693 4.74325 4.74325 0 0 0-3.523558 2.84595l-34.286924 77.1117a5.6919 5.6919 0 0 0 0 4.472207l29.814717 57.732134v72.910534a5.420858 5.420858 0 0 0 0 2.032822l10.43515 23.58073a328.097406 328.097406 0 0 1-113.702488-234.723134l5.691901 6.911594a4.336686 4.336686 0 0 0 1.761779 1.355214l65.998941 30.356803a5.6919 5.6919 0 0 0 2.168343 0 5.149815 5.149815 0 0 0 3.930122-2.032822 4.878772 4.878772 0 0 0 0-6.233986l-39.707782-50.549497 7.182636-20.463738 40.656432-3.930121a4.201165 4.201165 0 0 0 2.981472-1.219693l80.093171-71.555321a5.149815 5.149815 0 0 0 0-7.047114L325.251456 507.121228a5.285336 5.285336 0 0 0-4.336686-1.761779 4.74325 4.74325 0 0 0-3.930122 2.439386l-18.566437 30.763367-16.94018-27.104288 31.034409-56.783483 30.492324-52.853362A328.910535 328.910535 0 0 1 739.269455 420.116464c-35.913182 18.83748-67.76072 35.506617-67.083113 35.506617l-78.466914 24.529381L542.08576 461.721546l-57.325569 52.175754L502.649021 542.08576l-42.689254 24.800423 4.878772 28.323981 52.175754 8.673372 33.473796 18.295395-22.225516 5.420857-21.818952-14.365272-44.857597 10.164108-27.104288 74.943356 23.309688 40.656432 39.57226 1.626257 13.552144 78.06035 28.052939 63.559555 37.268396-23.987295L636.950768 708.777131l-36.319746-14.500794-4.336686-20.192695 25.47803 9.893065 20.057173 5.014294 20.463738-26.155638L691.159344 713.791424l44.857596-30.356803 34.557967 67.76072L826.680783 636.950768l22.361038-41.605082A329.046056 329.046056 0 0 1 529.88883 1002.858655z" fill="#84F8FE" p-id="2838"></path><path d="M363.739545 535.580731s1.490736-0.813129 0.94865-1.355215-1.355214 0.813129-0.94865 1.355215z" fill="#484F59" p-id="2839"></path><path d="M845.653785 580.844891l-27.104288 51.091583-47.568025 97.033351-31.03441-60.30704-45.12864 30.492324-30.492324-54.208576L638.441503 677.6072l-13.552144-3.252515-41.876124-16.262573 8.131286 43.637904 32.118581 12.603494-55.157226 137.41874L543.576496 867.337215l-22.632081-50.956061-14.907358-84.565378-42.147168-1.626258-18.159873-31.712017 23.58073-65.456855 35.235575-8.266808 21.818952 14.365273 51.76919-12.603494-57.054527-31.305453-47.568025-8.131286-2.439386-14.365273 45.806247-27.104288L497.363684 514.981472l46.483854-42.28269 49.736369 17.482266 82.397035-25.884595s33.744839-18.024352 71.555321-37.810482a329.588142 329.588142 0 0 1 98.117522 154.35892zM323.083113 417.812599l-18.701959 32.389624-32.525146 59.629434a4.74325 4.74325 0 0 0 0 5.014293l22.903124 36.590789a5.556379 5.556379 0 0 0 4.336686 2.303864 4.74325 4.74325 0 0 0 4.201165-2.439385l19.244044-31.712017 38.894653 47.296982-75.214399 67.76072-42.553732 4.065643a5.420858 5.420858 0 0 0-4.336686 3.388036L230.386448 667.714134a5.014293 5.014293 0 0 0 0.813128 4.743251l28.459503 36.319746-45.941768-21.141345-13.552144-15.856008a329.046056 329.046056 0 0 1 122.917946-253.967179zM314.003176 820.71784L284.595024 763.934357l30.356802-68.573849 89.579672 81.312864-75.078878 154.629963-15.449444-35.100053v-73.181577a4.472208 4.472208 0 0 0 0-2.303865zM389.488618 509.831657L352.355744 432.04235a304.787718 304.787718 0 0 1 103.673901-34.82901l-15.99153 71.690842z" fill="#D5E962" p-id="2840"></path><path d="M533.547909 352.355744a320.643727 320.643727 0 1 1-320.643727 320.237162A321.185813 321.185813 0 0 1 533.547909 352.355744z m0-30.356803a351.000529 351.000529 0 1 0 351.000529 351.00053 351.407094 351.407094 0 0 0-351.000529-351.00053z" fill="#484F59" p-id="2841"></path><path d="M337.177343 430.822657s-1.355214 0.813129-0.948651 1.355215 1.355214-0.813129 0.813129-1.355215zM372.68396 536.664902s-1.355214 0.813129-0.94865 1.355214 1.490736-0.813129 1.084171-1.355214zM338.8036 950.140815a15.04288 15.04288 0 0 1-13.552144-9.079936l-19.78613-44.857597a13.552144 13.552144 0 0 1-1.219693-6.233986v-68.438327l-27.917417-54.208576a14.636316 14.636316 0 0 1 0-13.552144l33.338274-75.214399a15.04288 15.04288 0 0 1 23.987295-5.014294l94.865008 85.785072a14.907358 14.907358 0 0 1 3.388036 17.753308L352.355744 941.602965a15.178401 15.178401 0 0 1-13.552144 8.53785z m-4.607729-63.152991l5.285336 11.925887 60.171519-124.137639-70.877713-64.101641-21.954473 49.329804 26.291159 50.956061a13.552144 13.552144 0 0 1 1.626258 7.047115z" fill="#484F59" p-id="2842"></path><path d="M286.898888 734.797247a15.178401 15.178401 0 0 1-6.369507-1.490736L216.834304 703.762837a14.636316 14.636316 0 0 1-5.420858-4.065643l-17.346744-21.141344L216.834304 659.311805 232.148227 677.6072l4.065643 1.8973-1.626258-1.8973a15.178401 15.178401 0 0 1-2.303864-14.365273l8.808894-25.478031a15.313923 15.313923 0 0 1 12.874536-10.028586l38.217046-3.659079 63.288513-56.647962-22.496559-27.104288-11.112758 18.566437a15.449444 15.449444 0 0 1-12.874537 7.318158 15.720487 15.720487 0 0 1-13.552144-7.182636l-21.68343-35.77766a14.771837 14.771837 0 0 1 0-15.313923l31.169931-58.003176 31.847538-54.208576 26.155638 15.178401-31.576495 54.208576-27.104288 49.87189 4.472207 7.182636 9.486501-15.720487a15.584966 15.584966 0 0 1 11.925887-7.318158 14.907358 14.907358 0 0 1 12.739015 5.420858l45.399682 55.021704a15.178401 15.178401 0 0 1-1.490735 21.005824L308.582319 650.502912a14.500794 14.500794 0 0 1-8.673372 3.7946l-33.338275 3.252514-2.981471 8.40233 35.235574 44.857596a15.178401 15.178401 0 0 1-11.925887 24.529381z" fill="#484F59" p-id="2843"></path><path d="M389.759661 544.389624l-55.699312-116.006352 13.552144-6.776072c72.368449-37.810482 115.870831-38.894653 120.614082-38.894654h18.295394l-22.361037 101.505559z m-15.584965-102.454208l26.291159 54.208576 36.455267-29.408153 11.383801-51.633669a316.307041 316.307041 0 0 0-74.130227 26.833246zM538.020116 890.917946l-32.796188-75.214399-11.925887-67.76072-35.913181-1.490736-27.781895-48.516675 29.814716-82.8036 26.29116-6.098465-24.39386-4.065643-7.182636-41.740604 38.488089-22.361037L475.815776 514.981472 542.08576 454.403388l54.208576 18.701959 71.690841-22.361038c6.911593-3.7946 41.876125-22.361038 78.195871-40.656432l13.552144 27.104288c-40.656432 21.141345-79.144521 41.876125-79.144521 41.876125l-2.574907 1.084172-82.668078 25.884595-45.806247-16.127052L514.981472 520.131286l20.057173 31.03441-47.432504 27.104288 39.843303 6.505029 81.312864 44.315511L528.533616 649.147697l-21.412388-13.552144-24.52938 5.691901-19.379566 54.208576 12.467972 21.818951 43.502382 1.761779 15.856009 90.121758 16.669137 37.539439 11.112758-7.182637 48.787718-121.291688-27.104288-10.706194-12.467972-65.998941 57.054526 22.089994 5.962943 1.490736 30.492324-38.894653 31.847539 56.783483 44.451032-29.950238 25.749074 50.685018 37.268396-76.027527 31.983059-59.358391 27.104288 14.365273-31.847538 58.545262-63.830598 129.965061-37.67496-74.26575-43.23134 29.13711-25.749073-45.806247-14.500794 18.566438h-2.168343l6.233986 2.439386-64.101641 158.560084z" fill="#484F59" p-id="2844"></path><path d="M544.254103 173.060879l-158.966649 1.626257c-67.76072 1.8973-122.917946 40.656432-121.969296 87.004764s0.813129 93.916358 1.355214 140.942298 23.445209 80.228692 119.394389 124.408682a756.887242 756.887242 0 0 0 164.251985 56.647962z" fill="#01CBD6" p-id="2845"></path><path d="M548.184224 598.869243a11.112758 11.112758 0 0 1-2.981471 0 772.472208 772.472208 0 0 1-167.640021-57.732133C284.595024 498.041292 250.172578 460.772896 249.359449 402.905241l-1.355214-141.077819c-0.813129-54.208576 60.578084-100.150344 136.741133-102.318687l159.373213-1.490736a13.552144 13.552144 0 0 1 10.706194 4.336686 15.449444 15.449444 0 0 1 4.607729 10.570672l3.930122 410.629963a15.584966 15.584966 0 0 1-5.556379 11.925887 15.449444 15.449444 0 0 1-9.622023 3.388036z m-18.973001-410.494442l-143.788248 1.355215c-58.545262 1.626257-108.417152 34.286924-107.197459 71.55532l1.490736 141.077819c0 38.081525 18.83748 68.438327 110.585495 110.856538a792.935945 792.935945 0 0 0 142.568555 51.498147z" fill="#484F59" p-id="2846"></path><path d="M543.847538 173.060879l158.966649-1.490736c67.76072 0 123.595553 38.759132 123.866596 84.565378s0.813129 94.051879 1.355215 141.077819-22.089995 80.635257-117.090524 126.712547a755.125463 755.125463 0 0 1-162.625728 59.764955z" fill="#01CBD6" p-id="2847"></path><path d="M547.77766 598.869243a15.04288 15.04288 0 0 1-15.04288-14.907358L528.533616 173.331922a15.178401 15.178401 0 0 1 15.04288-15.313923l158.966649-1.626257c76.569614 0.677607 138.909476 45.399682 139.044997 99.743779l1.355214 140.942298c0 57.867655-33.744839 95.949179-125.492853 140.400212a769.084172 769.084172 0 0 1-166.420328 61.120169z m11.383801-410.765484l3.659079 376.343038a765.425093 765.425093 0 0 0 141.484383-54.208576c90.934886-44.044468 108.417152-74.807835 108.417152-112.889359l-1.355214-140.942298c0-37.403917-50.007411-69.115934-108.417152-69.65802z" fill="#484F59" p-id="2848"></path><path d="M546.422446 423.775543l-531.244045-199.216517L542.08576 15.178401l531.244044 199.216517z" fill="#01CBD6" p-id="2849"></path><path d="M546.422446 438.818422a13.552144 13.552144 0 0 1-5.285336-0.94865L9.893065 238.788777a15.04288 15.04288 0 0 1-9.893065-13.552144 15.313923 15.313923 0 0 1 9.622022-13.552144L536.935945 1.084172a14.907358 14.907358 0 0 1 10.841715 0l531.379566 199.216516a15.178401 15.178401 0 0 1 0 28.323981l-527.178401 209.245103a15.449444 15.449444 0 0 1-5.556379 0.94865zM57.190048 224.152462l489.096876 183.360508 485.437798-192.711488L542.08576 31.440974z" fill="#484F59" p-id="2850"></path><path d="M878.856538 441.257808a15.04288 15.04288 0 0 1-15.04288-15.042879l-1.219693-119.800953-328.775013-123.188989a15.178401 15.178401 0 0 1 10.706194-28.459503l338.803599 126.98359a14.907358 14.907358 0 0 1 9.893065 13.552144l1.219693 130.642668a15.178401 15.178401 0 0 1-15.042879 15.313922z" fill="#484F59" p-id="2851"></path><path d="M602.257279 164.794071c0 16.262573-25.613552 29.679195-57.596612 29.950238s-58.138698-12.603494-58.274219-28.730545 25.613552-29.543674 57.596612-29.950238 58.138698 13.010058 58.274219 28.730545z" fill="#01CBD6" p-id="2852"></path><path d="M543.576496 209.92271c-41.740603 0-72.097406-18.430916-72.368449-43.773425a39.57226 39.57226 0 0 1 24.935945-34.557967 110.992059 110.992059 0 0 1 47.703546-10.706194h1.355215c41.605082 0 71.961885 18.430916 72.232927 43.773425s-31.03441 44.857597-72.639492 45.264161z m1.626257-58.680783c-28.459502 0-43.502382 10.977237-43.637904 14.636315s13.552144 13.552144 42.011647 13.552144h0.813128c29.13711 0 42.824775-11.790365 42.689254-14.636315s-14.09423-13.552144-41.876125-13.552144z" fill="#484F59" p-id="2853"></path><path d="M912.465855 515.659079v-53.124405a30.356803 30.356803 0 0 0-60.578084 0v53.124405z" fill="#01CBD6" p-id="2854"></path><path d="M927.644256 530.83748h-90.934886v-67.76072a45.535204 45.535204 0 0 1 90.934886 0zM867.337215 500.480678h30.221282v-37.946004a15.178401 15.178401 0 1 0-30.221282 0z" fill="#484F59" p-id="2855"></path></svg>