<?xml version="1.0" standalone="no"?><!DOCTYPE svg PUBLIC "-//W3C//DTD SVG 1.1//EN" "http://www.w3.org/Graphics/SVG/1.1/DTD/svg11.dtd"><svg t="1666357210713" class="icon" viewBox="0 0 1024 1024" version="1.1" xmlns="http://www.w3.org/2000/svg" p-id="20822" xmlns:xlink="http://www.w3.org/1999/xlink" width="200" height="200"><path d="M849.170732 0c97.404878 0 174.829268 77.42439 174.829268 174.829268v674.341464c0 97.404878-77.42439 174.829268-174.829268 174.829268H174.829268c-97.404878 0-174.829268-77.42439-174.829268-174.829268V174.829268c0-97.404878 77.42439-174.829268 174.829268-174.829268h674.341464z m-147.356098 402.107317H337.170732c-19.980488 0-37.463415 17.482927-37.463415 37.463415v269.736585h-12.487805c-19.980488 0-37.463415 17.482927-37.463414 37.463415v14.985366c0 19.980488 17.482927 37.463415 37.463414 37.463414h464.546342c19.980488 0 37.463415-17.482927 37.463414-37.463414v-14.985366c0-19.980488-17.482927-37.463415-37.463414-37.463415h-12.487805V439.570732c0-19.980488-17.482927-37.463415-37.463415-37.463415z m-229.77561 69.931707c4.995122 0 9.990244 4.995122 9.990244 12.487805v174.829269c0 7.492683-4.995122 12.487805-9.990244 12.487804h-84.917073c-4.995122 0-9.990244-4.995122-9.990244-12.487804v-174.829269c0-7.492683 4.995122-12.487805 9.990244-12.487805h84.917073z m184.819513 0c4.995122 0 9.990244 4.995122 9.990243 12.487805v174.829269c0 7.492683-4.995122 12.487805-9.990243 12.487804h-84.917074c-4.995122 0-9.990244-4.995122-9.990243-12.487804v-174.829269c0-7.492683 4.995122-12.487805 9.990243-12.487805h84.917074z m72.429268-222.282926h-424.585366c-17.482927 2.497561-29.970732 14.985366-32.468293 32.468292V352.156098c2.497561 17.482927 14.985366 32.468293 32.468293 32.468292h427.082927c17.482927-2.497561 29.970732-14.985366 32.468293-32.468292V282.22439c-2.497561-17.482927-14.985366-32.468293-32.468293-32.468292h-2.497561z m-372.136585 42.458536c14.985366 0 24.97561 9.990244 24.975609 24.97561 0 12.487805-9.990244 22.478049-22.478049 24.97561h-2.49756c-14.985366 0-24.97561-9.990244-24.97561-24.97561 0-12.487805 9.990244-22.478049 22.478049-24.97561h2.497561z m74.926829 0c14.985366 0 24.97561 9.990244 24.97561 24.97561 0 12.487805-9.990244 22.478049-22.478049 24.97561h-2.497561c-14.985366 0-24.97561-9.990244-24.97561-24.97561 0-12.487805 9.990244-22.478049 22.478049-24.97561h2.497561z" fill="#38B781" p-id="20823"></path></svg>