<?xml version="1.0" standalone="no"?><!DOCTYPE svg PUBLIC "-//W3C//DTD SVG 1.1//EN" "http://www.w3.org/Graphics/SVG/1.1/DTD/svg11.dtd"><svg t="1666357728971" class="icon" viewBox="0 0 1024 1024" version="1.1" xmlns="http://www.w3.org/2000/svg" p-id="28894" xmlns:xlink="http://www.w3.org/1999/xlink" width="200" height="200"><path d="M124.816 751.421c-7.343 0-16.571 5.149-16.571 11.5v145.907h807.573l0.002-387.832-221.253 115.431v-54.076l-44.251 27.304v-55.118L387.829 705.424v-41.245l-42.239 29.016v-54.388L124.816 751.421z m415.879-8.671c0-16.006 13.022-29.028 29.028-29.028h251.699c16.006 0 29.028 13.022 29.028 29.028v83.748c0 16.006-13.022 29.028-29.028 29.028H569.723c-16.006 0-29.028-13.022-29.028-29.028V742.75z m-82.33-29.028c16.006 0 29.028 13.022 29.028 29.028v83.748c0 16.006-13.022 29.028-29.028 29.028H206.666c-16.006 0-29.028-13.022-29.028-29.028V742.75c0-16.006 13.022-29.028 29.028-29.028h251.699zM945.991 505.255v405.007c0 4.973-1.168 9.612-3.238 13.652h2.694c7.344 0 13.618-5.148 13.618-11.5v-413.98l-13.074 6.821z" fill="#FCDE9E" p-id="28895"></path><path d="M945.991 505.255v-113.49L774.81 497.387l-96.334 64.029v-125.48l-40.038 25.646 0.327-6.383-29.175 20.041 13.384-261.35h159.814l20.331 264.681 28.802-19.143-25.277-329.01-1.187-15.445c-0.368-15.684-13.382-28.806-28.737-28.806H626.551c-15.429 0-28.488 13.249-28.734 29.033l-19.539 381.55-190.449 130.826-12.068 8.29v-6.028l-2.011 1.288v-95.272l-77.943 46.799 0.064-1.245-29.027 17.544 7.628-148.723h159.683l10.427 135.527 28.566-18.298-15.364-200.701-1.092-14.271c-0.366-15.484-12.909-27.968-28.526-27.968h-150.17c-15.693 0-28.489 12.605-28.734 28.194l-13.596 265.085-143.384 86.661C78.562 706.71 65 718.089 65 732.789v177.472c0 15.846 12.91 28.737 28.778 28.737h824.366c10.796 0 19.972-6.036 24.609-15.085 2.07-4.04 3.238-8.678 3.238-13.652V505.255zM627.965 116.426l0.005-0.088h147.325l1.082 14.08 4.094 53.302H624.518l3.447-67.294zM279.372 354.688h147.432l0.928 12.068 4.101 53.302H276.019l3.353-65.37zM95.171 735.034c0.661-0.409 1.514-1.198 1.988-1.198h4.204L345.59 586.612v106.584l42.239-29.016 262.487-180.311v125.786l44.251-27.304L915.82 445.833v75.162l-0.002 387.832H95.171V735.034z" fill="#58A80A" p-id="28896"></path><path d="M306.171 380.506l-2.028 39.553h127.69l-4.101-53.302H319.823c-7.54 0-13.652 6.209-13.652 13.749zM302.596 450.23l-6.726 131.179-0.064 1.245 77.943-46.799v95.272l2.011-1.288v6.027l12.069-8.29v-5.468l56.752-36.352-10.427-135.526zM496.854 552.273l-13.21-171.767c0-7.54-6.112-13.749-13.652-13.749h-12.208l15.364 200.701 23.706-15.185zM654.726 143.997l-2.037 39.722H780.47l-4.094-53.302H668.378c-7.54 0.001-13.652 6.041-13.652 13.58zM855.272 443.908l-23.073-299.911c0-7.54-6.112-13.58-13.652-13.58h-11.903l25.277 329.01 23.351-15.519zM651.141 213.891l-12.376 241.308-0.328 6.384 40.039-25.647v125.48l96.334-64.029 28.309-18.816-20.331-264.68z" fill="#FCDE9E" p-id="28897"></path><path d="M277.486 300.849c0.454 0 0.913-0.021 1.375-0.062 56.753-5.127 95.313-47.499 91.687-100.75-2.478-36.395 20.845-69.182 54.253-76.268 8.15-1.729 13.356-9.737 11.627-17.887-1.729-8.151-9.736-13.354-17.887-11.628-23.336 4.949-44.112 18.63-58.502 38.521-14.329 19.808-21.287 44.423-19.592 69.311 2.922 42.914-31.283 65.67-64.3 68.653-8.298 0.749-14.417 8.083-13.667 16.381 0.707 7.836 7.287 13.729 15.006 13.729z" fill="#58A80A" p-id="28898"></path><path d="M506.71 123.769c8.15-1.729 13.356-9.737 11.627-17.887-1.729-8.151-9.734-13.354-17.887-11.628-23.336 4.949-44.112 18.63-58.502 38.521-14.329 19.808-21.287 44.423-19.592 69.311 2.923 42.914-31.283 65.67-64.3 68.653-8.298 0.749-14.417 8.083-13.667 16.381 0.708 7.836 7.288 13.729 15.006 13.729 0.455 0 0.913-0.021 1.375-0.062 56.754-5.127 95.314-47.499 91.687-100.75-2.478-36.395 20.846-69.183 54.253-76.268z" fill="#58A80A" p-id="28899"></path><path d="M247.899 755.962c-7.7 0-13.942 6.242-13.942 13.942v55.451h223.265v-69.393H247.899zM597.014 769.904v55.451h223.265v-69.393H610.956c-7.7 0-13.942 6.242-13.942 13.942z" fill="#FCDE9E" p-id="28900"></path><path d="M206.666 713.722c-16.006 0-29.028 13.022-29.028 29.028v83.748c0 16.006 13.022 29.028 29.028 29.028h251.699c16.006 0 29.028-13.022 29.028-29.028V742.75c0-16.006-13.022-29.028-29.028-29.028H206.666z m250.556 42.24v69.393H207.809v-81.462h249.413v12.069zM569.723 855.526h251.699c16.006 0 29.028-13.022 29.028-29.028V742.75c0-16.006-13.022-29.028-29.028-29.028H569.723c-16.006 0-29.028 13.022-29.028 29.028v83.748c0 16.006 13.022 29.028 29.028 29.028z m1.143-111.633h249.413v81.461H570.866v-81.461z" fill="#58A80A" p-id="28901"></path></svg>