<?xml version="1.0" standalone="no"?><!DOCTYPE svg PUBLIC "-//W3C//DTD SVG 1.1//EN" "http://www.w3.org/Graphics/SVG/1.1/DTD/svg11.dtd"><svg t="1666356148382" class="icon" viewBox="0 0 1024 1024" version="1.1" xmlns="http://www.w3.org/2000/svg" p-id="13048" xmlns:xlink="http://www.w3.org/1999/xlink" width="200" height="200"><path d="M768 1024H256c-143.36 0-256-112.64-256-256V256c0-143.36 112.64-256 256-256h512c143.36 0 256 112.64 256 256v512c0 143.36-112.64 256-256 256zM614.4 271.36c-5.12-56.32-25.6-92.16-92.16-92.16H512c0-5.12-15.36-25.6-87.04-25.6C358.4 153.6 312.32 220.16 302.08 271.36c-10.24 51.2 10.24 97.28 10.24 97.28s-25.6 20.48-10.24 61.44c15.36 40.96 40.96 46.08 40.96 46.08s5.12 30.72 15.36 51.2c10.24 20.48 30.72 30.72 25.6 51.2-5.12 15.36-15.36 35.84-40.96 35.84-20.48 5.12-128 25.6-163.84 76.8-35.84 51.2-51.2 133.12 35.84 158.72 35.84 10.24 97.28 20.48 163.84 20.48 10.24 0 122.88 5.12 168.96 0 66.56-5.12 128-10.24 158.72-20.48 87.04-25.6 66.56-107.52 35.84-158.72-35.84-51.2-143.36-71.68-163.84-76.8-30.72-5.12-30.72-61.44-15.36-97.28 10.24-20.48 15.36-40.96 15.36-40.96s20.48-5.12 40.96-46.08c15.36-40.96-10.24-56.32-10.24-56.32s10.24-46.08 5.12-102.4z m256-15.36h-204.8v51.2h204.8V256z m0 153.6h-153.6v51.2h153.6V409.6z" fill="#7fe0a2" p-id="13049"></path></svg>