<?xml version="1.0" standalone="no"?><!DOCTYPE svg PUBLIC "-//W3C//DTD SVG 1.1//EN" "http://www.w3.org/Graphics/SVG/1.1/DTD/svg11.dtd"><svg t="1666355516148" class="icon" viewBox="0 0 1024 1024" version="1.1" xmlns="http://www.w3.org/2000/svg" p-id="10889" xmlns:xlink="http://www.w3.org/1999/xlink" width="200" height="200"><path d="M938.67 853.33H85.36a56.89 56.89 0 1 0 0 113.78h853.31a56.89 56.89 0 1 0 0-113.78z" fill="#7fe0a2" p-id="10890"></path><path d="M256.02 568.89h113.77v341.33H256.02z" fill="#7fe0a2" p-id="10891"></path><path d="M320.93 327.85l36.16 42.73a113.77 113.77 0 0 0-10.7 158l34.09 40.29H245.34l34.08-40.29a113.79 113.79 0 0 0-2-149.31l43.53-51.44M320.93 0L128.39 227.56h128.36L64.21 455.11h128.36L0 682.67h625.79L433.25 455.11h144.4L385.11 227.56h128.36L320.93 0z" fill="#7fe0a2" p-id="10892"></path></svg>