<?xml version="1.0" standalone="no"?><!DOCTYPE svg PUBLIC "-//W3C//DTD SVG 1.1//EN" "http://www.w3.org/Graphics/SVG/1.1/DTD/svg11.dtd"><svg t="1666355631336" class="icon" viewBox="0 0 1024 1024" version="1.1" xmlns="http://www.w3.org/2000/svg" p-id="12711" xmlns:xlink="http://www.w3.org/1999/xlink" width="200" height="200"><path d="M317.41 391c-0.37-0.45-44.23-57.03-62.27 9.13-17.54 64.3 32.18 141.67 71.05 123.13 29.76 118.54 132.64 157.31 190.88 157.31 58.23 0 161.12-38.77 190.87-157.31 38.88 18.54 83-53.72 65.46-118.02-18.04-66.15-56.3-14.69-56.67-14.24 1.45-150.46-3.79-271.31-199.66-271.31S315.95 240.54 317.41 391" fill="#C78244" p-id="12712"></path><path d="M552.83 676.41v42.86c-9.9 3.48-22.3 5.54-35.76 5.54-13.45 0-25.85-2.06-35.76-5.54v-42.86c12.93 2.86 25.09 4.16 35.76 4.16 10.66 0 22.83-1.3 35.76-4.16" fill="#B76940" p-id="12713"></path><path d="M605.51 130.97c88.97 30.39 79.16 257.29 93.35 271.55 12.97 13.02 31.23-24.92 31.23-24.92 1.2-123.32-15.5-213.33-124.58-246.63zM304.6 378.06s18.47 40.87 30.36 21.56c11.86-19.28 4.69-238.26 93.66-268.65-109.07 33.3-125.2 123.77-124.02 247.09z" fill="#341818" p-id="12714"></path><path d="M517.07 98.23c149.53 0 270.76 65.85 270.76 147.08 0 81.23-121.23 147.09-270.76 147.09-149.54 0-270.76-65.86-270.76-147.09S367.53 98.23 517.07 98.23" fill="#162F94" p-id="12715"></path><path d="M339.26 356.18c47.57 22.54 109.73 36.22 177.81 36.22s130.24-13.68 177.81-36.22H339.26zM517.07 211.18c97.76 0 177.01-2.73 177.01 47.04 0 49.77-79.25 90.12-177.01 90.12-97.76 0-177-40.34-177-90.12 0-49.77 79.24-47.04 177-47.04" fill="#2E4AA7" p-id="12716"></path><path d="M518.92 237.79l12.76 25.04c0.3 0.59 0.87 1.01 1.53 1.11l27.76 4.41c1.68 0.27 2.35 2.32 1.14 3.52l-19.87 19.87c-0.47 0.47-0.69 1.14-0.58 1.8l4.39 27.76c0.27 1.68-1.48 2.95-3 2.18l-25.04-12.76c-0.59-0.3-1.29-0.3-1.89 0l-25.05 12.76c-1.51 0.77-3.26-0.5-3-2.18l4.39-27.76c0.1-0.66-0.11-1.33-0.58-1.8l-19.87-19.87c-1.2-1.2-0.53-3.26 1.15-3.52l27.75-4.41c0.66-0.1 1.22-0.52 1.53-1.11l12.77-25.04c0.78-1.51 2.94-1.51 3.71 0z" fill="#F0C722" p-id="12717"></path><path d="M405.39 710.39h59.55c9.82 8.57 29.48 14.42 52.13 14.42 22.64 0 42.31-5.85 52.13-14.42h59.55c14.49 0 26.35 11.86 26.35 26.35v163.12H379.04V736.74c0-14.5 11.85-26.35 26.35-26.35" fill="#162F94" p-id="12718"></path><path d="M379.04 899.86h-68.86c8.54-43.65 14.21-164.38 68.86-164.38h0.03l-0.03 1.26v163.12z m276.06 0h68.85c-8.53-43.65-14.2-164.38-68.85-164.38h-0.03l0.03 1.26v163.12z" fill="#2E4AA7" p-id="12719"></path><path d="M723.95 899.86c-2.05-10.48-3.94-25.41-6.38-42.03H655.1v42.03h68.85z m-344.91 0h-68.86c2.05-10.48 3.94-25.41 6.38-42.03h62.48v42.03zM455.9 686.51l61.17 31.7 61.17-31.7v35.13l-61.17 31.7-61.17-31.7z" fill="#223E9E" p-id="12720"></path><path d="M597.78 785.27l6.39 12.52 13.88 2.21-9.94 9.93 2.2 13.88-12.53-6.37-12.51 6.37 2.18-13.88-9.93-9.93 13.89-2.21z" fill="#F0C722" p-id="12721"></path><path d="M413 795.62h67.62v17.83H413z" fill="#FFFFFF" p-id="12722"></path><path d="M563.46 537.12c-17.41-17.39-46.39-18.57-46.39-18.57s-28.98 1.17-46.39 18.57c-14.31 14.29-41.05 21.23-41.05 21.23s20.93 15.62 56.5 11.77c17.81-1.93 30.94-10.86 30.94-10.86s13.13 8.94 30.94 10.86c35.57 3.85 56.5-11.77 56.5-11.77s-26.73-6.93-41.05-21.23z" fill="#341818" p-id="12723"></path><path d="M536.63 519.33c0 10.8-8.76 12.34-19.56 12.34-10.8 0-19.56-1.54-19.56-12.34s8.76-44.93 19.56-44.93c10.8 0 19.56 34.13 19.56 44.93z" fill="#B76940" p-id="12724"></path><path d="M400.36 431.88a9.8 9.8 0 0 1-4.69-1.2c-4.76-2.59-6.52-8.56-3.92-13.32 8.06-14.78 24.25-23.96 42.26-23.96 13.85 0 26.95 5.54 35.93 15.2 3.69 3.97 3.47 10.18-0.5 13.87-3.97 3.69-10.18 3.47-13.87-0.5-5.29-5.68-13.14-8.94-21.55-8.94-10.66 0-20.47 5.39-25.02 13.73a9.836 9.836 0 0 1-8.64 5.12zM633.78 431.88a9.8 9.8 0 0 0 4.69-1.2c4.76-2.59 6.52-8.56 3.92-13.32-8.06-14.78-24.25-23.96-42.26-23.96-13.85 0-26.95 5.54-35.93 15.2-3.69 3.97-3.47 10.18 0.5 13.87 3.97 3.69 10.18 3.47 13.87-0.5 5.29-5.68 13.14-8.94 21.55-8.94 10.66 0 20.47 5.39 25.02 13.73a9.86 9.86 0 0 0 8.64 5.12z" fill="#341818" p-id="12725"></path><path d="M434.09 441.3c-9.05 0-16.39 7.34-16.39 16.38v9.7h0.05c0.28 8.8 7.46 15.86 16.33 15.86 8.87 0 16.05-7.06 16.33-15.86h0.05v-9.7c0.02-9.04-7.32-16.38-16.37-16.38zM600.05 441.3c-9.05 0-16.38 7.34-16.38 16.38v9.7h0.05c0.28 8.8 7.46 15.86 16.33 15.86s16.05-7.06 16.33-15.86h0.05v-9.7c0-9.04-7.33-16.38-16.38-16.38z" fill="#572F12" p-id="12726"></path><path d="M452.09 578.45c3.17 33.11 31.04 59 64.98 59 33.93 0 61.81-25.89 64.98-59H452.09z" fill="#FFFFFF" p-id="12727"></path></svg>