<?xml version="1.0" standalone="no"?><!DOCTYPE svg PUBLIC "-//W3C//DTD SVG 1.1//EN" "http://www.w3.org/Graphics/SVG/1.1/DTD/svg11.dtd"><svg t="1666356461502" class="icon" viewBox="0 0 1024 1024" version="1.1" xmlns="http://www.w3.org/2000/svg" p-id="17979" xmlns:xlink="http://www.w3.org/1999/xlink" width="200" height="200"><path d="M206.664 687.133c0.641 0.106 1.91 0.454 1.91 1.383v134.416c0 1.992-13.86 4.836-6.849 4.836h570.6c7.01 0 13.562-2.844 13.562-4.836V687.205H209.756c-1.695 0-2.635-0.04-3.092-0.072zM206.664 687.133c-0.401-0.066-0.552-0.039 0 0z" fill="#FCDE9E" p-id="17980"></path><path d="M820.992 482.461c13.29 9.15 28.131 14.07 43.022 14.07 22.514 0 43.659-8.496 59.48-23.923 14.698-14.333 23.337-33.211 24.65-53.63 0.117-1.811 0.197-3.63 0.197-5.464 0-0.505 0.047-0.978 0.015-1.418 0.034-0.425 0.182-0.853 0.182-1.284v-1.299l-1.255-6.462c-0.369-2.669-0.893-5.302-1.554-8.057l-50.713-231.312c-0.98-15.194-13.54-27.685-28.298-27.685H148.555c-14.749 0-27.303 12.478-28.296 27.661L71.703 382.297c-4.105 10.062-6.269 21.145-6.269 32.154 0 30.77 16.619 57.056 41.784 71.072 12.405 6.91 26.877 10.853 42.478 10.853 20.026 0 39.966-8.852 56.147-24.926a102.465 102.465 0 0 0 15.465-19.669c5.553 8.805 12.729 16.96 21.126 23.71a91.854 91.854 0 0 0 6.863 5.009c12.602 8.336 27.386 13.541 43.262 13.541 30.333 0 56.69-18.983 71.432-42.547a96.956 96.956 0 0 0 21.307 23.994 91.567 91.567 0 0 0 6.862 5.01c12.603 8.336 27.386 13.543 43.263 13.543 30.333 0 56.689-18.983 71.432-42.546a96.934 96.934 0 0 0 21.307 23.993 91.836 91.836 0 0 0 6.862 5.009c12.603 8.336 27.386 13.544 43.263 13.544 30.332 0 56.689-18.984 71.432-42.547a96.934 96.934 0 0 0 21.307 23.993 91.567 91.567 0 0 0 6.862 5.01c12.603 8.337 27.386 13.544 43.263 13.544 30.203 0 56.464-18.821 71.241-42.244a102.904 102.904 0 0 0 15.458 19.714 97.978 97.978 0 0 0 5.909 5.418 147.36 147.36 0 0 1-0.764 6.704v368.259c-2.427 1.412-6.539 2.985-8.495 2.985H186.277c-1.198 0-3.419-0.993-4.812-1.928V536.173a281.1 281.1 0 0 1-7.278 0.087 70.95 70.95 0 0 1-22.843-3.757v323.214c0 17.874 20.663 29.28 34.889 29.28H804.5c13.476 0 38.616-10.056 38.616-29.28v-328.24c-11.125-7.684-19.064-21.252-22.124-45.016z m-12.444-78.39h-31.935l-2.068 12.626c-3.651 22.291-27.264 47.223-53.397 47.223-26.132 0-49.744-24.932-53.396-47.224l-2.069-12.625H633.75l-2.069 12.625c-3.652 22.292-27.264 47.224-53.396 47.224-26.133 0-49.745-24.932-53.396-47.224l-2.069-12.625h-31.933l-2.068 12.626c-3.652 22.291-27.263 47.223-53.396 47.223s-49.744-24.932-53.396-47.224l-2.069-12.625h-31.933l-2.069 12.625c-3.652 22.292-27.263 47.224-53.397 47.224-26.133 0-49.744-24.932-53.396-47.224l-2.069-12.625h-31.933l-2.068 12.625c-3.311 20.207-25.757 49.559-53.396 49.559-17.124 0-32.153-7.242-42.004-18.767-7.614-8.908-12.136-20.374-12.136-33.038 0-7.458 1.524-14.939 4.401-21.636l0.564-1.3 49.818-224.267v-1.13h714.863v1.109l5.686 26L916.464 401.6l-0.045 0.34c0.375 1.534 0.631 3.314 0.93 5.48l0.55 3.217-0.039 0.378 0.04 1.067c0.036 0.938 0.131 1.743 0.246 2.432-0.529 29.18-24.115 51.896-54.132 51.896-27.624 0-50.076-29.444-53.396-49.714l-2.07-12.625z" fill="#58A80A" p-id="17981"></path><path d="M317.051 535.206c34.987 0 63.607-3.62 68.247-59.718a96.92 96.92 0 0 1-21.307-23.994c-14.742 23.564-41.099 42.547-71.432 42.547-15.877 0-30.66-5.205-43.262-13.541 5.906 51.305 33.838 54.706 67.754 54.706z" fill="#FCDE9E" p-id="17982"></path><path d="M864.013 466.41c30.017 0 53.602-22.715 54.132-51.896a19.13 19.13 0 0 1-0.246-2.432l-0.04-1.067 0.039-0.378-0.55-3.217c-0.298-2.167-0.555-3.946-0.93-5.48l0.045-0.34-45.573-208.374H173.047c-7.345 0-13.299 13.76-13.299 21.105L110.606 438.89c-1.132 2.634-2.107 5.545-2.913 8.599 9.851 11.525 24.88 18.767 42.004 18.767 27.639 0 50.085-29.352 53.396-49.559l2.068-12.625h31.933l2.069 12.625c3.652 22.292 27.264 47.224 53.396 47.224 26.133 0 49.745-24.932 53.397-47.224l2.069-12.625h31.933l2.069 12.625c3.652 22.292 27.263 47.224 53.396 47.224s49.745-24.932 53.396-47.223l2.068-12.626h31.933l2.069 12.625c3.651 22.292 27.263 47.224 53.396 47.224 26.132 0 49.744-24.932 53.396-47.224l2.069-12.625h31.933l2.069 12.625c3.652 22.292 27.265 47.224 53.396 47.224 26.133 0 49.745-24.932 53.397-47.223l2.068-12.626h31.935l2.069 12.626c3.321 20.269 25.772 49.712 53.396 49.712z" fill="#FCDE9E" p-id="17983"></path><path d="M459.914 535.206c34.987 0 63.607-3.62 68.247-59.718a96.934 96.934 0 0 1-21.307-23.993c-14.742 23.563-41.098 42.546-71.432 42.546-15.877 0-30.66-5.207-43.263-13.543 5.907 51.307 33.839 54.708 67.755 54.708zM745.641 535.206c33.21 0 60.68-3.268 67.354-51.573 0.296-2.144 0.551-4.378 0.764-6.704a97.676 97.676 0 0 1-5.909-5.418 102.826 102.826 0 0 1-15.458-19.714c-14.778 23.422-41.038 42.244-71.241 42.244-15.877 0-30.66-5.208-43.263-13.544 5.904 51.308 33.837 54.709 67.753 54.709zM602.777 535.206c34.988 0 63.607-3.62 68.247-59.719a96.934 96.934 0 0 1-21.307-23.993c-14.743 23.563-41.099 42.547-71.432 42.547-15.877 0-30.66-5.207-43.263-13.544 5.907 51.308 33.84 54.709 67.755 54.709zM957.706 466.117l-0.946-5.443c-0.325-2.369-0.659-4.709-1.217-6.995l-7.399-34.701c-1.314 20.419-9.953 39.297-24.65 53.63-15.821 15.427-36.966 23.923-59.48 23.923-14.89 0-29.732-4.92-43.022-14.07 3.06 23.764 10.999 37.332 22.124 45.016 12.094 8.354 27.951 9.759 45.389 9.759 38.218 0 69.201-29.967 69.201-68.186 0-0.902-0.231-1.231-0.265-2.125 0.046-0.454 0.265-0.341 0.265-0.808zM181.465 536.173c31.614-0.826 56.654-8.53 60.969-60.682-8.397-6.75-15.573-14.905-21.126-23.71a102.473 102.473 0 0 1-15.465 19.669c-16.181 16.074-36.121 24.926-56.147 24.926-15.601 0-30.073-3.943-42.478-10.853 5.818 22.173 22.532 39.649 44.127 46.979a70.946 70.946 0 0 0 22.843 3.757c2.459 0.001 4.886-0.023 7.277-0.086z" fill="#FCDE9E" p-id="17984"></path></svg>