<?xml version="1.0" standalone="no"?><!DOCTYPE svg PUBLIC "-//W3C//DTD SVG 1.1//EN" "http://www.w3.org/Graphics/SVG/1.1/DTD/svg11.dtd"><svg t="1666435356287" class="icon" viewBox="0 0 1024 1024" version="1.1" xmlns="http://www.w3.org/2000/svg" p-id="79057" xmlns:xlink="http://www.w3.org/1999/xlink" width="200" height="200"><path d="M519.1168 140.032c73.2672 0 132.6848 71.552 132.6848 159.744l0 0.5888 106.0608 0 53.0432 583.552L227.3792 883.9168l53.0432-583.552 106.112 0L386.5344 299.776C386.5344 211.584 445.9008 140.032 519.1168 140.032M286.336 750.0544c1.024 11.9552 5.4016 21.8624 13.184 29.5424 7.7824 7.808 21.7344 11.6992 41.8816 11.6992 11.4688 0 20.992-1.6384 28.544-4.992 7.552-3.3024 13.4144-8.1408 17.6128-14.592 4.224-6.4 6.3488-13.3888 6.3488-20.992 0-6.4512-1.6128-12.3392-4.7616-17.5616-3.1232-5.248-8.2176-9.6-15.1296-13.1072-6.9376-3.5584-18.4064-7.04-34.4064-10.496-6.4768-1.3568-10.5728-2.7904-12.288-4.352-1.7664-1.5616-2.6624-3.2-2.6624-5.0944 0-2.6112 1.0752-4.8128 3.2256-6.6048s5.376-2.688 9.6512-2.688c5.1456 0 9.216 1.2032 12.1088 3.6096 2.9696 2.4576 4.9152 6.3488 5.8112 11.648l34.56-1.9968c-1.536-12.288-6.2464-21.248-14.208-26.9056-7.936-5.6576-19.5072-8.448-34.6624-8.448-12.3136 0-22.0416 1.5616-29.1584 4.6592s-12.3904 7.3984-15.8976 12.8c-3.5584 5.4016-5.2992 11.1616-5.2992 17.2544 0 9.2416 3.456 16.896 10.3424 22.912 6.8352 5.9392 18.2784 10.752 34.3296 14.3616 9.8304 2.2016 16.0768 4.4544 18.7648 6.912 2.688 2.4064 4.0192 5.1968 4.0192 8.2432 0 3.2-1.3824 6.0416-4.224 8.5504-2.816 2.4576-6.8608 3.6096-12.0576 3.6096-7.04 0-12.416-2.3552-16.2048-7.1424-2.304-2.944-3.8656-7.296-4.5824-12.9536L286.336 750.0544zM407.68 730.0608c0 13.9008 2.688 25.3952 8.1408 34.6112 5.4528 9.2416 12.5696 15.9488 21.3248 20.2496 8.7552 4.2496 19.8144 6.4 33.1776 6.4 13.1584 0 24.0896-2.5088 32.9472-7.4496 8.8064-4.8896 15.5136-11.8016 20.224-20.6592 4.6592-8.9088 6.9888-20.2496 6.9888-34.0992 0-19.0976-5.3504-33.8944-16-44.4928-10.6496-10.5984-25.8816-15.8976-45.6192-15.8976-19.2 0-34.2272 5.4016-45.0048 16.2048C413.0816 695.6544 407.68 710.7584 407.68 730.0608M444.288 730.24c0 11.9552 2.2272 20.5568 6.6816 25.8048 4.4288 5.1968 10.496 7.808 18.1248 7.808 7.8848 0 13.9776-2.56 18.304-7.6544 4.3008-5.0944 6.4768-14.3104 6.4768-27.5456 0-11.2128-2.2784-19.3536-6.784-24.4992-4.48-5.1456-10.5728-7.7056-18.304-7.7056-7.3728 0-13.3376 2.6112-17.7664 7.8592C446.5152 709.504 444.288 718.1568 444.288 730.24M550.1952 670.7456l0 118.5024 93.7984 0 0-29.2096-57.088 0 0-89.2928L550.1952 670.7456zM661.1456 670.7456l0 118.5024 54.4512 0c6.5024 0 13.7472-1.0496 21.8112-3.2 5.888-1.5616 11.3408-4.7616 16.4608-9.4464 5.1456-4.7104 9.1392-10.5472 12.0576-17.5104 2.8928-6.9888 4.3008-16.8448 4.3008-29.4912 0-8.0896-0.9472-15.744-2.8928-22.9376-1.9456-7.2448-5.0432-13.5424-9.344-18.9952s-9.8048-9.6512-16.3584-12.544c-6.656-2.8928-15.3088-4.352-26.0096-4.352L661.1456 670.7712zM697.7536 697.6l0 64.6912 9.0112 0c7.6544 0 13.1072-0.7936 16.3584-2.5088 3.2-1.6896 5.76-4.7104 7.6032-8.9088 1.792-4.1984 2.688-11.1104 2.688-20.608 0-12.544-1.9968-21.1456-6.0928-25.7536-4.096-4.6592-10.9056-6.9376-20.4032-6.9376L697.7536 697.5744zM642.8416 357.5552c-5.6064 17.408-13.696 33.3312-23.7056 47.1808 2.944 1.1264 6.144 1.7408 9.4976 1.7408 14.6432 0 26.5472-11.904 26.5472-26.5216C655.2064 370.5088 650.24 362.24 642.8416 357.5552M419.84 405.6064c-9.9584-13.5168-18.0224-29.0816-23.7056-46.08-5.8624 4.864-9.6256 12.2112-9.6256 20.4288 0 14.6176 11.8784 26.5216 26.5472 26.5216C415.3856 406.4768 417.6384 406.1952 419.84 405.6064M399.8208 300.3904l243.7632 0c-0.512-81.9456-54.912-148.1728-121.9072-148.1728C454.7072 152.2176 400.3328 218.4448 399.8208 300.3904M413.0816 353.4336c-1.8944 0-3.7376 0.2048-5.504 0.5632 5.248 17.1008 12.9792 32.6912 22.6816 46.1568 5.7088-4.8384 9.3184-12.1088 9.3184-20.1984C439.5776 365.312 427.6992 353.4336 413.0816 353.4336M628.6592 353.4336c-14.6432 0-26.5472 11.8784-26.5472 26.5216 0 8.576 4.1472 16.2304 10.4448 21.0688 9.9072-13.5424 17.792-29.3376 23.1424-46.6432C633.4464 353.792 631.0912 353.4336 628.6592 353.4336" p-id="79058" data-spm-anchor-id="a313x.7781069.0.i72" class="selected" fill="#d4237a"></path></svg>