<?xml version="1.0" standalone="no"?><!DOCTYPE svg PUBLIC "-//W3C//DTD SVG 1.1//EN" "http://www.w3.org/Graphics/SVG/1.1/DTD/svg11.dtd"><svg t="1666370623298" class="icon" viewBox="0 0 1024 1024" version="1.1" xmlns="http://www.w3.org/2000/svg" p-id="7985" xmlns:xlink="http://www.w3.org/1999/xlink" width="200" height="200"><path d="M512 256L106.666667 512v42.666667l405.333333-256 405.333333 256v-42.666667zM938.666667 213.333333c0 46.933333-38.4 85.333333-85.333334 85.333334s-85.333333-38.4-85.333333-85.333334 85.333333-106.666667 85.333333-106.666666 85.333333 59.733333 85.333334 106.666666zM256 213.333333c0 46.933333-38.4 85.333333-85.333333 85.333334s-85.333333-38.4-85.333334-85.333334 85.333333-106.666667 85.333334-106.666666 85.333333 59.733333 85.333333 106.666666z" fill="#F44336" p-id="7986"></path><path d="M106.666667 554.666667v362.666666h810.666666V554.666667L512 298.666667 106.666667 554.666667z" fill="#E89419" p-id="7987"></path><path d="M746.666667 445.866667V917.333333h128V526.933333zM277.333333 445.866667V917.333333H149.333333V526.933333z" fill="#DB8D18" p-id="7988"></path><path d="M586.666667 533.333333h-49.066667L512 576l-25.6-42.666667h-49.066667l25.6-42.666666-25.6-42.666667h49.066667l25.6-42.666667 25.6 42.666667h49.066667l-25.6 42.666667z" fill="#FFECB3" p-id="7989"></path><path d="M789.333333 298.666667h128v618.666666h-128zM106.666667 298.666667h128v618.666666H106.666667z" fill="#FFB74D" p-id="7990"></path><path d="M768 256h170.666667v42.666667h-170.666667zM85.333333 256h170.666667v42.666667H85.333333z" fill="#FFCC80" p-id="7991"></path><path d="M597.333333 917.333333h-170.666666v-170.666666c0-46.933333 38.4-85.333333 85.333333-85.333334s85.333333 38.4 85.333333 85.333334v170.666666z" fill="#805A26" p-id="7992"></path></svg>