<?xml version="1.0" standalone="no"?><!DOCTYPE svg PUBLIC "-//W3C//DTD SVG 1.1//EN" "http://www.w3.org/Graphics/SVG/1.1/DTD/svg11.dtd"><svg t="1666357106859" class="icon" viewBox="0 0 1024 1024" version="1.1" xmlns="http://www.w3.org/2000/svg" p-id="20495" xmlns:xlink="http://www.w3.org/1999/xlink" width="200" height="200"><path d="M512 981.333333a190.593333 190.593333 0 0 1-115.2-38.4l-129.693333-97.266666a341.333333 341.333333 0 0 1-134.053334-232l-57.24-472.233334A88 88 0 0 1 184.52 45.473333c214.24 53.56 440.72 53.56 654.96 0a88 88 0 0 1 108.706667 95.96l-57.24 472.24a341.333333 341.333333 0 0 1-134.053334 232L627.2 942.933333A190.593333 190.593333 0 0 1 512 981.333333zM162.933333 85.466667a45.406667 45.406667 0 0 0-44.76 50.833333l57.24 472.24a300.106667 300.106667 0 0 0 117.293334 202.993333l129.693333 97.266667c52.753333 39.566667 126.446667 39.566667 179.2 0l129.693333-97.266667 12.8 17.066667-12.8-17.066667a300.106667 300.106667 0 0 0 117.293334-202.993333l57.24-472.24a45.333333 45.333333 0 0 0-56-49.433333A1394.273333 1394.273333 0 0 1 512 128.453333a1394.273333 1394.273333 0 0 1-337.826667-41.586666 46.22 46.22 0 0 0-11.24-1.4zM512 757.173333a398.293333 398.293333 0 0 1-157.74-32.373333 21.333333 21.333333 0 0 1 16.813333-39.22c89.56 38.386667 192.293333 38.386667 281.853334 0a21.333333 21.333333 0 0 1 16.813333 39.22A398.293333 398.293333 0 0 1 512 757.173333zM746.666667 362.666667a21.266667 21.266667 0 0 1-11.813334-3.58 93.8 93.8 0 0 0-104.333333 0 21.333333 21.333333 0 0 1-23.666667-35.506667 136.713333 136.713333 0 0 1 151.666667 0A21.333333 21.333333 0 0 1 746.666667 362.666667z m-341.333334 0a21.266667 21.266667 0 0 1-11.813333-3.58 93.8 93.8 0 0 0-104.333333 0 21.333333 21.333333 0 0 1-23.666667-35.506667 136.713333 136.713333 0 0 1 151.666667 0A21.333333 21.333333 0 0 1 405.333333 362.666667z" fill="#c94180" p-id="20496"></path></svg>