<?xml version="1.0" standalone="no"?><!DOCTYPE svg PUBLIC "-//W3C//DTD SVG 1.1//EN" "http://www.w3.org/Graphics/SVG/1.1/DTD/svg11.dtd"><svg t="1666435015931" class="icon" viewBox="0 0 1024 1024" version="1.1" xmlns="http://www.w3.org/2000/svg" p-id="68802" xmlns:xlink="http://www.w3.org/1999/xlink" width="200" height="200"><path d="M512 0C229.23264 0 0 229.23264 0 512c0 282.7776 229.23264 512 512 512 282.78784 0 512-229.2224 512-512 0-282.76736-229.2224-512-512-512z" fill="#ea986c" p-id="68803" data-spm-anchor-id="a313x.7781069.0.i54" class="selected"></path><path d="M376.19712 558.05952c-27.53536 7.81312-45.59872 21.51424-57.4976 35.20512 11.39712-9.97376 26.66496-19.12832 47.2576-24.96512 21.06368-5.96992 39.03488-5.92896 53.88288-3.06176v-11.61216c-12.66688-1.15712-27.1872-0.23552-43.64288 4.43392zM317.44 460.45184l-102.25664 26.94144s1.86368 2.63168 5.31456 6.144L307.2 470.69184s-1.2288 15.83104-11.89888 29.99296C315.48416 485.41696 317.44 460.45184 317.44 460.45184z m85.59616 240.32256C259.13344 739.5328 182.99904 572.76416 159.9488 486.20544c-10.6496-39.95648-15.29856-70.21568-16.5376-89.74336a33.09568 33.09568 0 0 1 0.07168-5.30432c-7.46496 0.45056-11.03872 4.33152-10.31168 15.54432 1.23904 19.51744 5.888 49.77664 16.5376 89.74336 23.04 86.54848 99.18464 253.31712 243.08736 214.55872 31.32416-8.43776 54.85568-23.808 72.51968-43.42784-16.2816 14.70464-36.6592 26.28608-62.27968 33.19808zM430.08 358.38976v10.24h56.44288c-1.15712-3.62496-2.32448-6.89152-3.4816-10.24H430.08z" fill="#2D4552" p-id="68804"></path><path d="M499.13856 442.73664c25.38496 7.20896 38.8096 25.00608 45.90592 40.7552l28.30336 8.0384s-3.86048-55.12192-53.71904-69.28384c-46.6432-13.25056-75.34592 25.91744-78.83776 30.98624 13.568-9.66656 33.3824-17.58208 58.34752-10.496z m225.30048 41.0112c-46.68416-13.312-75.37664 25.93792-78.81728 30.93504 13.57824-9.65632 33.3824-17.57184 58.33728-10.45504 25.344 7.2192 38.7584 24.99584 45.8752 40.7552l28.34432 8.06912s-3.92192-55.13216-53.73952-69.30432zM696.32 629.08416l-235.44832-65.82272s2.54976 12.92288 12.32896 29.65504l198.23616 55.41888c16.32256-9.44128 24.8832-19.2512 24.8832-19.2512zM533.08416 770.7648C346.65472 720.78336 369.19296 483.24608 399.36 370.688c12.42112-46.3872 25.1904-80.86528 35.77856-103.97696-6.31808-1.30048-11.55072 2.02752-16.72192 12.544C407.17312 302.05952 392.79616 339.18976 378.88 391.168c-30.1568 112.55808-52.69504 350.08512 133.72416 400.06656 87.86944 23.54176 156.32384-12.2368 207.34976-68.42368-48.4352 43.86816-110.27456 68.46464-186.86976 47.95392z" fill="#2D4552" p-id="68805"></path><path d="M430.08 645.10976v-47.93344l-133.18144 37.76512s9.84064-57.18016 79.29856-76.88192c21.06368-5.96992 39.03488-5.92896 53.88288-3.06176v-196.608h66.68288c-7.26016-22.43584-14.2848-39.71072-20.18304-51.712-9.75872-19.8656-19.7632-6.69696-42.47552 12.29824-15.99488 13.3632-56.4224 41.87136-117.25824 58.2656-60.83584 16.40448-110.01856 12.05248-130.53952 8.4992-29.09184-5.0176-44.30848-11.40736-42.88512 10.72128 1.23904 19.51744 5.888 49.77664 16.5376 89.74336 23.04 86.54848 99.18464 253.31712 243.08736 214.55872 37.59104-10.12736 64.12288-30.14656 82.51392-55.66464H430.08zM215.17312 487.39328L317.44 460.45184s-2.97984 39.34208-41.3184 49.44896c-38.3488 10.09664-60.94848-22.50752-60.94848-22.50752z" fill="#E2574C" p-id="68806"></path><path d="M814.96064 360.66304c-26.58304 4.6592-90.35776 10.46528-169.17504-10.65984-78.83776-21.11488-131.14368-58.04032-151.86944-75.39712-29.37856-24.60672-42.30144-41.70752-55.01952-15.84128-11.24352 22.81472-25.62048 59.94496-39.53664 111.9232-30.1568 112.55808-52.69504 350.08512 133.72416 400.06656C719.4624 820.69504 818.688 603.70944 848.8448 491.14112c13.91616-51.968 20.0192-91.32032 21.69856-116.69504 1.91488-28.74368-17.82784-20.39808-55.58272-13.78304z m-374.54848 93.12256s29.37856-45.69088 79.2064-31.52896c49.85856 14.16192 53.71904 69.28384 53.71904 69.28384l-132.92544-37.75488z m121.63072 205.03552c-87.64416-25.67168-101.16096-95.55968-101.16096-95.55968L696.32 629.08416c0-0.01024-47.52384 55.0912-134.27712 29.73696z m83.24096-143.62624s29.3376-45.66016 79.1552-31.45728c49.8176 14.1824 53.73952 69.30432 53.73952 69.30432l-132.89472-37.84704z" fill="#EDEDED" p-id="68807"></path><path d="M383.5392 610.37568l-86.64064 24.55552s9.41056-53.61664 73.23648-74.86464l-49.05984-184.1152-4.23936 1.29024c-60.83584 16.40448-110.01856 12.05248-130.53952 8.4992-29.09184-5.0176-44.30848-11.40736-42.88512 10.72128 1.23904 19.51744 5.888 49.77664 16.5376 89.74336 23.04 86.54848 99.18464 253.31712 243.08736 214.55872l4.23936-1.3312-23.73632-89.05728z m-168.36608-122.9824L317.44 460.45184s-2.97984 39.34208-41.3184 49.44896c-38.3488 10.09664-60.94848-22.50752-60.94848-22.50752z" fill="#D65348" p-id="68808"></path><path d="M565.99552 659.78368l-3.96288-0.96256c-87.64416-25.67168-101.16096-95.55968-101.16096-95.55968l121.40544 33.93536L646.5536 350.208l-0.77824-0.2048c-78.83776-21.11488-131.14368-58.04032-151.86944-75.39712-29.37856-24.60672-42.30144-41.70752-55.01952-15.84128-11.23328 22.81472-25.61024 59.94496-39.5264 111.9232-30.1568 112.55808-52.69504 350.08512 133.72416 400.06656l3.81952 0.86016 29.09184-111.83104zM440.41216 453.7856s29.37856-45.69088 79.2064-31.52896c49.85856 14.16192 53.71904 69.28384 53.71904 69.28384l-132.92544-37.75488z" fill="#E1E1E1" p-id="68809"></path><path d="M387.95264 609.11616l-23.23456 6.59456c5.48864 30.94528 15.16544 60.64128 30.35136 86.87616 2.64192-0.58368 5.26336-1.08544 7.95648-1.82272a168.58112 168.58112 0 0 0 19.89632-6.83008c-16.96768-25.18016-28.19072-54.17984-34.9696-84.81792zM378.88 391.168c-11.93984 44.56448-22.62016 108.70784-19.68128 173.04576a134.37952 134.37952 0 0 1 16.9984-6.16448l4.3008-0.96256c-5.24288-68.72064 6.0928-138.752 18.86208-186.39872 3.23584-12.05248 6.48192-23.26528 9.71776-33.72032-5.21216 3.31776-10.82368 6.71744-17.21344 10.21952A881.99168 881.99168 0 0 0 378.88 391.168z" fill="#C04B41" p-id="68810"></path></svg>