<?xml version="1.0" standalone="no"?><!DOCTYPE svg PUBLIC "-//W3C//DTD SVG 1.1//EN" "http://www.w3.org/Graphics/SVG/1.1/DTD/svg11.dtd"><svg t="1666370540992" class="icon" viewBox="0 0 1024 1024" version="1.1" xmlns="http://www.w3.org/2000/svg" p-id="7774" xmlns:xlink="http://www.w3.org/1999/xlink" width="200" height="200"><path d="M832 512H640c-70.4 0-128 57.6-128 128 0-70.4-57.6-128-128-128H192c-70.4 0-128 57.6-128 128v192c0 70.4 57.6 128 128 128h192c70.4 0 128-57.6 128-128 0 70.4 57.6 128 128 128h192c70.4 0 128-57.6 128-128V640c0-70.4-57.6-128-128-128zM416 640c0 17.6-14.4 32-32 32H192c-17.6 0-32-14.4-32-32s14.4-32 32-32h192c17.6 0 32 14.4 32 32z m448 0c0 17.6-14.4 32-32 32H640c-17.6 0-32-14.4-32-32s14.4-32 32-32h192c17.6 0 32 14.4 32 32zM416 512h192c70.4 0 128-57.6 128-128V192c0-70.4-57.6-128-128-128H416c-70.4 0-128 57.6-128 128v192c0 70.4 57.6 128 128 128z m-32-320c0-17.6 14.4-32 32-32h192c17.6 0 32 14.4 32 32s-14.4 32-32 32H416c-17.6 0-32-14.4-32-32z" p-id="7775"></path></svg>